<?xml version="1.0" encoding="UTF-8"?>
<svg width="24px" height="24px" viewBox="0 0 24 24" version="1.1" xmlns="http://www.w3.org/2000/svg" xmlns:xlink="http://www.w3.org/1999/xlink">
    <title>选中角标_蓝色</title>
    <g id="首页" stroke="none" stroke-width="1" fill="none" fill-rule="evenodd">
        <g id="公共切图" transform="translate(-1103.000000, -122.000000)">
            <g id="选中角标_蓝色" transform="translate(1103.000000, 122.000000)">
                <path d="M0,0 L16,0 C20.418278,-8.11624501e-16 24,3.581722 24,8 L24,24 L24,24" id="路径" fill="#3B8CFE" transform="translate(12.000000, 12.000000) scale(1, -1) translate(-12.000000, -12.000000) "></path>
                <path d="M20.8281328,14.122473 L14.9770786,20.713681 C14.957136,20.746675 14.9349347,20.778179 14.9087757,20.807384 C14.6794456,21.0642053 14.3076795,21.0642053 14.078195,20.807384 L11.1718673,17.5535122 C10.9427109,17.2966696 10.9427109,16.8804764 11.1718673,16.624017 C11.401178,16.3671744 11.7729441,16.3671744 12.0022742,16.624017 L14.484711,19.402945 L19.9975521,13.192616 C20.2270559,12.9357947 20.5986482,12.9357947 20.8281328,13.192616 C21.0572891,13.4494373 21.0572891,13.8656092 20.8281328,14.122473 Z" id="路径备份-2" fill="#FFFFFF" fill-rule="nonzero"></path>
            </g>
        </g>
    </g>
</svg>