<?xml version="1.0" encoding="UTF-8"?>
<svg width="40px" height="40px" viewBox="0 0 40 40" version="1.1" xmlns="http://www.w3.org/2000/svg" xmlns:xlink="http://www.w3.org/1999/xlink">
    <title>心愿单_icon</title>
    <g id="公共头尾" stroke="none" stroke-width="1" fill="none" fill-rule="evenodd">
        <g id="公共切图" transform="translate(-440.000000, -63.000000)">
            <g id="心愿单_icon" transform="translate(440.000000, 63.000000)">
                <rect id="矩形" fill-opacity="0" fill="#FFFFFF" x="0" y="0" width="40" height="40"></rect>
                <path d="M27.5,7 C29.566737,7 31.4362727,7.87200687 32.790312,9.27619576 C34.1572764,10.6937885 35,12.6528466 35,14.8148148 C35,24.2276958 22.5759272,31.4683418 20.0034181,32.8660571 C18.3905642,31.9743223 12.8252094,28.7038687 8.91612633,24.0165885 C6.70000579,21.3592958 5,18.237128 5,14.8148148 C5,12.6528466 5.84272362,10.6937885 7.20968805,9.27619576 C8.56372733,7.87200687 10.433263,7 12.5,7 C13.8670539,7 15.148471,7.38119486 16.2509347,8.04638505 C17.4004439,8.73996101 18.3556596,9.74129116 19.0140427,10.9405112 C19.367144,11.583672 19.62639,12.2683143 19.7860534,12.971907 C20.0201833,12.2855485 20.3403386,11.6203462 20.7362867,10.9929785 C22.2306924,8.62513876 24.6761711,7 27.5,7 Z" id="路径" stroke="#333333" stroke-width="2" fill-rule="nonzero"></path>
            </g>
        </g>
    </g>
</svg>