<?xml version="1.0" encoding="UTF-8"?>
<svg width="24px" height="24px" viewBox="0 0 24 24" version="1.1" xmlns="http://www.w3.org/2000/svg" xmlns:xlink="http://www.w3.org/1999/xlink">
    <title>搜索</title>
    <g id="公共头尾" stroke="none" stroke-width="1" fill="none" fill-rule="evenodd">
        <g id="公共切图" transform="translate(-372.000000, -70.000000)" fill="#FFFFFF" fill-rule="nonzero">
            <path d="M375.336955,73.2018594 C379.614567,69.0089867 386.455489,68.9234238 390.83766,73.0079842 C395.21983,77.0925446 395.580727,83.8908245 391.65541,88.4120665 L391.65541,88.4120665 L395.725644,92.4622491 C395.959264,92.6868317 396.052941,93.0193659 395.970674,93.3320605 C395.888407,93.6447551 395.642997,93.8889558 395.328754,93.9708175 C395.014512,94.0526792 394.680331,93.9594645 394.454637,93.7269953 L394.454637,93.7269953 L390.374825,89.6672827 C385.772564,93.5046878 378.946841,93.043165 374.90856,88.6215279 C370.870279,84.1998907 371.059342,77.3947322 375.336955,73.2018594 Z M386.753164,72.6367125 C383.296873,71.2022922 379.31255,71.9810278 376.658283,74.6097561 C374.004016,77.2384844 373.20259,81.1994517 374.62775,84.6454614 C376.052909,88.0914712 379.423954,90.3437981 383.1688,90.3520931 C388.280926,90.3633619 392.434736,86.249518 392.447596,81.1625799 C392.456965,77.4361859 390.209456,74.0711328 386.753164,72.6367125 Z M384.011578,74.4835222 C385.568699,74.4831611 387.06215,75.098518 388.163201,76.194145 C389.264252,77.2897719 389.882655,78.7758647 389.882293,80.3253152 C389.882293,80.6290762 389.634826,80.8753232 389.329561,80.8753232 C389.024297,80.8753232 388.77683,80.6290762 388.77683,80.3253152 C388.77683,77.7065042 386.643354,75.5835383 384.011578,75.5835383 C383.706313,75.5835383 383.458847,75.3372914 383.458847,75.0335303 C383.458847,74.7297693 383.706313,74.4835222 384.011578,74.4835222 Z" id="搜索"></path>
        </g>
    </g>
</svg>