<?xml version="1.0" encoding="UTF-8"?>
<svg width="18px" height="18px" viewBox="0 0 18 18" version="1.1" xmlns="http://www.w3.org/2000/svg" xmlns:xlink="http://www.w3.org/1999/xlink">
    <title>NEW</title>
    <g id="搜索流程" stroke="none" stroke-width="1" fill="none" fill-rule="evenodd">
        <g id="公共切图" transform="translate(-158.000000, -64.000000)">
            <g id="NEW" transform="translate(158.000000, 64.000000)">
                <rect id="矩形" fill-opacity="0" fill="#FFFFFF" x="0" y="0" width="18" height="18"></rect>
                <path d="M8.7504791,18 C13.0309505,18 16.4594134,14.2648493 16.8103009,9.95613358 C16.8426696,9.5586627 16.9059026,8.46263609 17,6.66805375 C16.6654225,7.20074668 16.414255,7.46680488 16.2464974,7.46622834 C15.9948609,7.46536354 16.5927135,5.64283016 16.3506235,3.95899296 C16.2439068,3.21673393 15.7406369,1.89706961 14.8408138,0 C13.484873,1.73805747 12.6658502,2.64972263 12.3837457,2.73499549 C12.1016411,2.82026834 12.0749064,2.16425358 12.3035416,0.766951204 C11.7188171,1.26006836 11.2155004,1.56627676 10.7935916,1.68557641 C9.93423607,1.92856923 9.00878957,1.85584286 8.3460683,2.00024153 C6.91981376,2.31100455 5.94133703,2.73453924 4.7801125,3.43604416 C2.51604951,4.80378253 1,7.30578401 1,10.165707 C1,14.4924675 4.47000769,18 8.7504791,18 Z" id="椭圆形备份" fill="#00B100"></path>
                <path d="M12.4285714,13.5 L10.7454093,13.5 L7.47868036,9.1336346 C7.30936819,8.9070368 7.18653387,8.72401549 7.1101774,8.58457069 L7.08527856,8.58457069 C7.11515717,8.8169787 7.13009648,9.17575855 7.13009648,9.66091026 L7.13009648,13.5 L5.57142857,13.5 L5.57142857,6.75 L7.36414566,6.75 L10.5113601,10.9943512 C10.7205104,11.2761459 10.8483245,11.4548096 10.8948024,11.5303422 L10.9197012,11.5303422 C10.8865027,11.3676566 10.8699035,11.0568108 10.8699035,10.597805 L10.8699035,6.75 L12.4285714,6.75 L12.4285714,13.5 Z" id="路径" fill="#FFFFFF" fill-rule="nonzero"></path>
            </g>
        </g>
    </g>
</svg>