<?xml version="1.0" encoding="UTF-8"?>
<svg width="18px" height="18px" viewBox="0 0 18 18" version="1.1" xmlns="http://www.w3.org/2000/svg" xmlns:xlink="http://www.w3.org/1999/xlink">
    <title>HOT</title>
    <g id="搜索流程" stroke="none" stroke-width="1" fill="none" fill-rule="evenodd">
        <g id="公共切图" transform="translate(-122.000000, -64.000000)">
            <g id="HOT" transform="translate(122.000000, 64.000000)">
                <rect id="矩形" fill-opacity="0" fill="#FFFFFF" x="0" y="0" width="18" height="18"></rect>
                <path d="M8.7504791,18 C13.0309505,18 16.4594134,14.2648493 16.8103009,9.95613358 C16.8426696,9.5586627 16.9059026,8.46263609 17,6.66805375 C16.6654225,7.20074668 16.414255,7.46680488 16.2464974,7.46622834 C15.9948609,7.46536354 16.5927135,5.64283016 16.3506235,3.95899296 C16.2439068,3.21673393 15.7406369,1.89706961 14.8408138,0 C13.484873,1.73805747 12.6658502,2.64972263 12.3837457,2.73499549 C12.1016411,2.82026834 12.0749064,2.16425358 12.3035416,0.766951204 C11.7188171,1.26006836 11.2155004,1.56627676 10.7935916,1.68557641 C9.93423607,1.92856923 9.00878957,1.85584286 8.3460683,2.00024153 C6.91981376,2.31100455 5.94133703,2.73453924 4.7801125,3.43604416 C2.51604951,4.80378253 1,7.30578401 1,10.165707 C1,14.4924675 4.47000769,18 8.7504791,18 Z" id="椭圆形备份" fill="#FF0000"></path>
                <polygon id="路径" fill="#FFFFFF" fill-rule="nonzero" points="12.4285714 13.5 10.7142857 13.5 10.7142857 10.7154616 7.28571429 10.7154616 7.28571429 13.5 5.57142857 13.5 5.57142857 6.75 7.28571429 6.75 7.28571429 9.47353131 10.7142857 9.47353131 10.7142857 6.75 12.4285714 6.75"></polygon>
            </g>
        </g>
    </g>
</svg>