<?xml version="1.0" encoding="UTF-8"?>
<svg width="24px" height="24px" viewBox="0 0 24 24" version="1.1" xmlns="http://www.w3.org/2000/svg" xmlns:xlink="http://www.w3.org/1999/xlink">
    <title>加号</title>
    <g id="购买流程" stroke="none" stroke-width="1" fill="none" fill-rule="evenodd">
        <g id="公共切图" transform="translate(-945.000000, -782.000000)">
            <g id="加号" transform="translate(945.000000, 782.000000)">
                <rect id="Rectangle-Copy-32" fill="#D9D9D9" x="0" y="0" width="24" height="24" rx="12"></rect>
                <path d="M12.1,6 C12.3761424,6 12.6,6.22385763 12.6,6.5 L12.6,11.4 L17.5,11.4 C17.7761424,11.4 18,11.6238576 18,11.9 L18,12.1 C18,12.3761424 17.7761424,12.6 17.5,12.6 L12.6,12.6 L12.6,17.5 C12.6,17.7761424 12.3761424,18 12.1,18 L11.9,18 C11.6238576,18 11.4,17.7761424 11.4,17.5 L11.4,12.6 L6.5,12.6 C6.22385763,12.6 6,12.3761424 6,12.1 L6,11.9 C6,11.6238576 6.22385763,11.4 6.5,11.4 L11.4,11.4 L11.4,6.5 C11.4,6.22385763 11.6238576,6 11.9,6 L12.1,6 Z" id="形状结合" stroke="#FFFFFF" fill="#FFFFFF"></path>
            </g>
        </g>
    </g>
</svg>