<?xml version="1.0" encoding="UTF-8"?>
<svg width="20px" height="20px" viewBox="0 0 20 20" version="1.1" xmlns="http://www.w3.org/2000/svg" xmlns:xlink="http://www.w3.org/1999/xlink">
    <!-- Generator: Sketch 62 (91390) - https://sketch.com -->
    <title>关闭_icon</title>
    <desc>Created with Sketch.</desc>
    <g id="设计规范" stroke="none" stroke-width="1" fill="none" fill-rule="evenodd">
        <g id="图标" transform="translate(-530.000000, -354.000000)" fill="#949EA3" fill-rule="nonzero">
            <g id="编组-22备份-7" transform="translate(490.000000, 354.000000)">
                <g id="关闭_icon" transform="translate(40.000000, 0.000000)">
                    <path d="M11.5483961,9.99583391 L19.6917095,1.85252048 C20.1027635,1.44146646 20.1027635,0.763782808 19.6917095,0.352728788 L19.6472712,0.308290515 C19.2362172,-0.102763505 18.5585335,-0.102763505 18.1474795,0.308290515 L10.0041661,8.46271351 L1.86085266,0.308290515 C1.44979864,-0.102763505 0.772114984,-0.102763505 0.361060964,0.308290515 L0.316622691,0.352728788 C-0.105540897,0.763782808 -0.105540897,1.44146646 0.316622691,1.85252048 L8.45993612,9.99583391 L0.316622691,18.1391473 C-0.094431329,18.5502014 -0.094431329,19.227885 0.316622691,19.638939 L0.361060964,19.6833773 C0.772114984,20.0944313 1.44979864,20.0944313 1.86085266,19.6833773 L10.0041661,11.5400639 L18.1474795,19.6833773 C18.5585335,20.0944313 19.2362172,20.0944313 19.6472712,19.6833773 L19.6917095,19.638939 C20.1027635,19.227885 20.1027635,18.5502014 19.6917095,18.1391473 L11.5483961,9.99583391 Z"></path>
                </g>
            </g>
        </g>
    </g>
</svg>