<?xml version="1.0" encoding="UTF-8"?>
<svg width="40px" height="40px" viewBox="0 0 40 40" version="1.1" xmlns="http://www.w3.org/2000/svg" xmlns:xlink="http://www.w3.org/1999/xlink">
    <title>游戏合作_icon</title>
    <defs>
        <rect id="path-1" x="0" y="0" width="40" height="40" rx="4"></rect>
        <path d="M32.860039,23.1644245 C32.0144041,16.0789608 30.518281,11 25.7697163,11 C23.3629096,11 22.1269818,13.3827223 19.9803704,13.570832 C17.7687101,13.3827223 16.5978311,11 14.1910244,11 C9.4424597,11 7.94633658,16.0789608 7.1657506,23.1017213 C6.71040878,26.8639145 7.10070177,29.9990755 9.50750853,29.9990755 C12.8900478,29.9990755 13.0201454,27.0520241 15.4269522,25.6725533 C16.3376358,25.2336308 18.3541496,25.0455211 20.0454192,24.9828179 C21.7366888,25.0455211 23.7532026,25.2336308 24.6638862,25.6725533 C27.070693,27.0520241 27.2007906,29.9990755 30.5833299,29.9990755 C32.9250878,30.0617787 33.2503319,26.9266177 32.860039,23.1644245 L32.860039,23.1644245 Z M14.2560732,22.5373924 C12.3696571,22.5373924 10.873534,21.0325151 10.873534,19.276825 C10.873534,17.5211348 12.3696571,16.0162575 14.2560732,16.0162575 C16.1424893,16.0162575 17.6386124,17.4584316 17.6386124,19.276825 C17.6386124,21.0952183 16.0774405,22.5373924 14.2560732,22.5373924 L14.2560732,22.5373924 Z M26.7454488,16.141664 L26.7454488,18.6497928 L29.4124509,18.6497928 L29.4124509,19.9038571 L26.7454488,19.9038571 L26.7454488,22.4746891 L25.4444722,22.4746891 L25.4444722,19.9038571 L22.7774701,19.9038571 L22.7774701,18.6497928 L25.4444722,18.6497928 L25.4444722,16.141664 L26.7454488,16.141664 Z M14.2560732,17.3957284 C14.7764639,17.3957284 15.2968545,17.6465412 15.6220987,17.9600573 C16.0123917,18.3362767 16.2075381,18.7751992 16.2075381,19.276825 C16.2075381,19.7784507 15.9473428,20.2800765 15.6220987,20.5935926 C15.2318057,20.9698119 14.7764639,21.1579215 14.2560732,21.1579215 C13.7356826,21.1579215 13.2152919,20.9071087 12.8900478,20.5935926 C12.4997548,20.2173732 12.3046083,19.7784507 12.3046083,19.276825 C12.3046083,18.7751992 12.4997548,18.2735734 12.8900478,17.9600573 C13.2803407,17.583838 13.7356826,17.3957284 14.2560732,17.3957284 Z" id="path-3"></path>
    </defs>
    <g id="PC" stroke="none" stroke-width="1" fill="none" fill-rule="evenodd">
        <g id="公共切图" transform="translate(-486.000000, -554.000000)">
            <g id="游戏合作_icon" transform="translate(486.000000, 554.000000)">
                <mask id="mask-2" fill="white">
                    <use xlink:href="#path-1"></use>
                </mask>
                <use id="蒙版" fill-opacity="0.1" fill="#3B8CFE" xlink:href="#path-1"></use>
                <g id="形状" fill-rule="nonzero" mask="url(#mask-2)">
                    <use fill="#FFFFFF" xlink:href="#path-3"></use>
                    <use fill="#3B8CFE" xlink:href="#path-3"></use>
                </g>
                <g id="游戏" mask="url(#mask-2)">
                    <g transform="translate(5.000000, 10.000000)"></g>
                </g>
            </g>
        </g>
    </g>
</svg>