<?xml version="1.0" encoding="UTF-8"?>
<svg width="50px" height="50px" viewBox="0 0 50 50" version="1.1" xmlns="http://www.w3.org/2000/svg" xmlns:xlink="http://www.w3.org/1999/xlink">
    <title>专业运营 品牌信赖_icon</title>
    <g id="PC" stroke="none" stroke-width="1" fill="none" fill-rule="evenodd">
        <g id="公共切图" transform="translate(-696.000000, -630.000000)">
            <g id="专业运营-品牌信赖_icon" transform="translate(696.000000, 630.000000)">
                <rect id="矩形" fill-opacity="0" fill="#FFFFFF" x="0" y="0" width="50" height="50"></rect>
                <g id="编组-17" transform="translate(2.000000, 5.000000)">
                    <path d="M44.275,2.46267653e-13 C45.2276912,2.46267653e-13 46,0.763150994 46,1.70454545 C46,2.64593991 45.2276912,3.40909091 44.275,3.40909091 L42.55,3.40909091 L42.55,28.4090909 C42.55,30.2918798 41.0053824,31.8181818 39.1,31.8181818 L33.4949,31.8181818 L38.60435,36.8659091 C39.0402676,37.2966577 39.2105129,37.9244875 39.050956,38.5129011 C38.8913991,39.1013147 38.4262805,39.560918 37.8308059,39.7185829 C37.2353314,39.8762479 36.5999676,39.7080213 36.16405,39.2772727 L28.61545,31.8181818 L17.39375,31.8181818 L9.85090003,39.2727272 C9.17404645,39.9187026 8.09815379,39.9094642 7.43276299,39.2519635 C6.76737219,38.5944627 6.75802297,37.5313276 7.41175003,36.8625 L12.5143,31.8181818 L6.89999999,31.8181818 C4.99461761,31.8181818 3.45,30.2918798 3.45,28.4090909 L3.45,3.40909091 L1.725,3.40909091 C0.772308806,3.40909091 4.08562073e-15,2.64593991 4.08562073e-15,1.70454545 C4.08562073e-15,0.763150994 0.772308806,2.46267653e-13 1.725,2.46267653e-13 L44.275,2.46267653e-13 Z" id="路径" fill="#3B8CFE" fill-rule="nonzero"></path>
                    <path d="M3.45,3.40909091 L42.55,3.40909091 L42.55,28.8181818 C42.55,30.4750361 41.2068542,31.8181818 39.55,31.8181818 L6.45,31.8181818 C4.79314575,31.8181818 3.45,30.4750361 3.45,28.8181818 L3.45,3.40909091 L3.45,3.40909091 Z" id="矩形" fill="#73ABFA"></path>
                    <path d="M36.30205,10.7306818 C35.6284378,10.0652581 34.5365123,10.0652581 33.8629,10.7306818 L27.0342,17.4761363 L21.37045,11.8772727 L21.3601,11.8670454 C21.2776754,11.7855182 21.1871331,11.7124204 21.08985,11.6488636 L20.94265,11.5625 C20.7446166,11.4597205 20.5282218,11.396035 20.30555,11.375 L20.13995,11.3681818 C20.02955,11.3681818 19.91915,11.3784091 19.81105,11.3988636 L19.65005,11.4375 C19.3821,11.5170454 19.1314,11.6590909 18.92095,11.8670454 L9.71174999,20.9647727 C9.2635338,21.3929505 9.08399818,22.0267878 9.24214728,22.6226706 C9.40029637,23.2185534 9.87151872,23.6837492 10.474701,23.8394611 C11.0778832,23.9951729 11.719157,23.8171685 12.15205,23.3738636 L20.13995,15.4829546 L25.81405,21.0931818 C26.151,21.4261363 26.5926,21.5931818 27.03305,21.5931818 L27.1998,21.5852273 C27.5839,21.5488636 27.9588,21.3840909 28.2532,21.0931818 L36.3032,13.1409091 L36.4205,13.0113636 C36.978395,12.3334972 36.9272406,11.3485519 36.30205,10.7306818 L36.30205,10.7306818 Z" id="路径" fill="#FFFFFF" fill-rule="nonzero"></path>
                </g>
            </g>
        </g>
    </g>
</svg>