<?xml version="1.0" encoding="UTF-8"?>
<svg width="40px" height="40px" viewBox="0 0 40 40" version="1.1" xmlns="http://www.w3.org/2000/svg" xmlns:xlink="http://www.w3.org/1999/xlink">
    <title>货源合作_icon</title>
    <defs>
        <rect id="path-1" x="0" y="0" width="40" height="40" rx="4"></rect>
    </defs>
    <g id="PC" stroke="none" stroke-width="1" fill="none" fill-rule="evenodd">
        <g id="公共切图" transform="translate(-606.000000, -554.000000)">
            <g id="货源合作_icon" transform="translate(606.000000, 554.000000)">
                <mask id="mask-2" fill="white">
                    <use xlink:href="#path-1"></use>
                </mask>
                <use id="蒙版" fill-opacity="0.1" fill="#3B8CFE" xlink:href="#path-1"></use>
                <path d="M32.9765675,24.1796101 L32.3018135,19.9003262 C32.2609193,18.4544249 31.1363294,17.2889407 29.7634533,17.2889407 L29.4275368,17.2889407 L28.1948694,14.6833972 C27.9056891,14.0729055 27.3273286,13.6960949 26.6847058,13.6960949 L22.0957945,13.6960949 L22.0957945,12.7964229 C22.0957945,11.8061996 21.3421732,11 20.4191331,11 L8.67666139,11 C7.75070031,11 7,11.8061996 7,12.7964229 L7,15.4253345 L11.6444105,15.4253345 L11.6444105,17.2217574 L7,17.2217574 L7,19.0181803 L12.4856622,19.0181803 L12.4856622,20.8146033 L7,20.8146033 L7,26.2739763 L9.63475361,26.2739763 C10.0086433,27.8191921 11.311415,28.9671502 12.8712359,28.9671502 C14.4310568,28.9671502 15.7309075,27.8191921 16.1077181,26.2739763 L23.8951385,26.2739763 C24.2690281,27.8191921 25.5717999,28.9671502 27.1286997,28.9671502 C28.6885206,28.9671502 29.9883713,27.8191921 30.365182,26.2739763 L31.3115902,26.2739763 C31.8110834,26.2739763 32.2842874,26.0402953 32.6055989,25.6313535 C32.9239893,25.2282537 33.0583558,24.6995504 32.9765675,24.1796101 L32.9765675,24.1796101 Z M12.8712359,27.1707273 C11.9452748,27.1707273 11.1945745,26.3645277 11.1945745,25.3743044 C11.1945745,24.384081 11.9481958,23.5778814 12.8712359,23.5778814 C13.797197,23.5778814 14.5478973,24.384081 14.5478973,25.3743044 C14.5478973,26.3645277 13.7942759,27.1707273 12.8712359,27.1707273 Z M27.1286997,27.1707273 C26.2027386,27.1707273 25.4520383,26.3645277 25.4520383,25.3743044 C25.4520383,24.384081 26.2056596,23.5778814 27.1286997,23.5778814 C28.0517398,23.5778814 28.8053696,24.384081 28.8053696,25.3743044 C28.8082821,26.3645277 28.0546608,27.1707273 27.1286997,27.1707273 Z" id="形状" fill="#3B8CFE" fill-rule="nonzero" mask="url(#mask-2)"></path>
            </g>
        </g>
    </g>
</svg>