<?xml version="1.0" encoding="UTF-8"?>
<svg width="60px" height="33px" viewBox="0 0 60 33" version="1.1" xmlns="http://www.w3.org/2000/svg" xmlns:xlink="http://www.w3.org/1999/xlink">
    <title>icon</title>
    <defs>
        <path d="M10.8340009,5.92433751 C11.980365,4.7280869 13.8794294,4.68764585 15.07568,5.83400989 C20.1214499,10.669359 25.0338699,13.0000132 29.8619475,13.0000132 C34.704394,13.0000132 39.7251021,10.6563598 44.9597788,5.80058604 C46.1744888,4.6738006 48.072646,4.74507762 49.1994314,5.9597877 C50.3262169,7.17449779 50.2549399,9.07265495 49.0402298,10.1994404 C42.7759048,16.0103332 36.3712416,19.0000132 29.8619475,19.0000132 C23.3382844,19.0000132 17.0094088,15.9973341 10.9243286,10.1660165 C9.72807796,9.01965249 9.68763691,7.12058811 10.8340009,5.92433751 Z" id="path-1"></path>
        <filter x="-43.7%" y="-89.3%" width="187.5%" height="350.0%" filterUnits="objectBoundingBox" id="filter-2">
            <feOffset dx="0" dy="5" in="SourceAlpha" result="shadowOffsetOuter1"></feOffset>
            <feGaussianBlur stdDeviation="5" in="shadowOffsetOuter1" result="shadowBlurOuter1"></feGaussianBlur>
            <feColorMatrix values="0 0 0 0 0.0470588235   0 0 0 0 0.431372549   0 0 0 0 1  0 0 0 0.3 0" type="matrix" in="shadowBlurOuter1"></feColorMatrix>
        </filter>
    </defs>
    <g id="PC" stroke="none" stroke-width="1" fill="none" fill-rule="evenodd">
        <g id="公共切图" transform="translate(-486.000000, -491.000000)" fill-rule="nonzero">
            <g id="编组-16" transform="translate(486.000000, 491.000000)">
                <rect id="矩形" fill-opacity="0" fill="#FFFFFF" x="0" y="0" width="60" height="33"></rect>
                <g id="icon">
                    <use fill="black" fill-opacity="1" filter="url(#filter-2)" xlink:href="#path-1"></use>
                    <use fill="#3B8CFE" xlink:href="#path-1"></use>
                </g>
            </g>
        </g>
    </g>
</svg>