<?xml version="1.0" encoding="UTF-8"?>
<svg width="20px" height="20px" viewBox="0 0 20 20" version="1.1" xmlns="http://www.w3.org/2000/svg" xmlns:xlink="http://www.w3.org/1999/xlink">
    <title>箭头-icon</title>
    <g id="PC" stroke="none" stroke-width="1" fill="none" fill-rule="evenodd">
        <g id="公共切图" transform="translate(-566.000000, -491.000000)">
            <g id="箭头-icon" transform="translate(566.000000, 491.000000)">
                <rect id="矩形" fill-opacity="0" fill="#FFFFFF" x="0" y="0" width="20" height="20"></rect>
                <path d="M19.7556892,9.43082383 L14.3974859,4.23682981 C14.1867696,4.03257633 13.879644,3.95280627 13.5918003,4.02756822 C13.3039566,4.10233017 13.0791251,4.32026602 13.0019976,4.59928143 C12.9248701,4.87829685 13.0071641,5.17600275 13.2178804,5.3802562 L17.1824171,9.22319861 L0.803930724,9.22319861 C0.516713944,9.2231986 0.251314689,9.37172733 0.107706295,9.61283547 C-0.0359020984,9.85394361 -0.0359020984,10.1510011 0.107706295,10.3921092 C0.251314689,10.6332174 0.516713944,10.7817461 0.803930724,10.7817461 L17.1824171,10.7817461 L13.2178804,14.6248179 C12.8969984,14.9413558 12.899309,15.4494419 13.2230575,15.7632254 C13.546806,16.0770088 14.0709686,16.0791911 14.3974859,15.7681149 L19.7556892,10.5742502 C19.9121185,10.4226244 20,10.2169723 20,10.002537 C20,9.78810176 19.9121185,9.58244963 19.7556892,9.43082383 Z" id="路径" fill="#3B8CFE" fill-rule="nonzero"></path>
            </g>
        </g>
    </g>
</svg>