<?xml version="1.0" encoding="UTF-8"?>
<svg width="50px" height="50px" viewBox="0 0 50 50" version="1.1" xmlns="http://www.w3.org/2000/svg" xmlns:xlink="http://www.w3.org/1999/xlink">
    <title>专业团队—icon</title>
    <g id="PC" stroke="none" stroke-width="1" fill="none" fill-rule="evenodd">
        <g id="公共切图" transform="translate(-486.000000, -630.000000)">
            <g id="专业团队—icon" transform="translate(486.000000, 630.000000)">
                <rect id="矩形" x="0" y="0" width="50" height="50"></rect>
                <g id="客服团队" transform="translate(0.000000, 1.250000)">
                    <g id="编组-22" transform="translate(0.000000, 12.500000)">
                        <path d="M9.34027652,21.5384615 C15.9169677,21.5384615 19.2850237,24.4872214 19.4444444,30.3847413 C16.4711051,33.1696261 13.2301452,34.5620685 9.72156489,34.5620685 C4.45869441,34.5620685 0.059519724,32.7516966 0.0154123659,30.3847413 C0.011109209,30.1538188 0.00250425193,29.8837542 -0.000361504293,29.5843829 L-0.00063474877,29.2357452 C0.0246648604,26.3960276 0.798598357,21.5384615 9.34027652,21.5384615 Z M10.2764631,6.73076923 C13.0378869,6.73076923 15.2764631,8.96934548 15.2764631,11.7307692 L15.2764631,15.1923077 C15.2764631,17.9537314 13.0378869,20.1923077 10.2764631,20.1923077 L9.16535201,20.1923077 C6.40392826,20.1923077 4.16535201,17.9537314 4.16535201,15.1923077 L4.16535201,11.7307692 C4.16535201,8.96934548 6.40392826,6.73076923 9.16535201,6.73076923 L10.2764631,6.73076923 Z" id="形状结合" fill="#DFE8F4"></path>
                        <path d="M39.8964668,21.5384615 C46.473158,21.5384615 49.841214,24.4872214 50.0006347,30.3847413 C47.0272954,33.1700352 43.7863355,34.5626822 40.2777552,34.5626822 C35.0148847,34.5626822 30.61571,32.7516966 30.5716027,30.3847413 C30.5672995,30.1538188 30.5586946,29.8837542 30.5558288,29.5843829 L30.5555556,29.2357452 C30.5808552,26.3960276 31.3547887,21.5384615 39.8964668,21.5384615 Z M40.8326534,6.73076923 C43.5940772,6.73076923 45.8326534,8.96934548 45.8326534,11.7307692 L45.8326534,15.1923077 C45.8326534,17.9537314 43.5940772,20.1923077 40.8326534,20.1923077 L39.7215423,20.1923077 C36.9601186,20.1923077 34.7215423,17.9537314 34.7215423,15.1923077 L34.7215423,11.7307692 C34.7215423,8.96934548 36.9601186,6.73076923 39.7215423,6.73076923 L40.8326534,6.73076923 Z" id="形状结合备份-2" fill="#DFE8F4" transform="translate(40.278095, 20.646726) scale(-1, 1) translate(-40.278095, -20.646726) "></path>
                        <path d="M24.8132801,19.7401129 C35.0788114,19.7401129 40.6955398,24.6704523 41.6634653,34.5311312 C36.141469,34.8437104 30.6422062,35 25.165677,35 C19.6891478,35 14.0772995,34.8437104 8.330132,34.5311312 C9.05336605,24.6704523 14.5477487,19.7401129 24.8132801,19.7401129 Z M26.9307123,0 C29.6921361,-1.39544373e-15 31.9307123,2.23857625 31.9307123,5 L31.9307123,12.5049419 C31.9307123,15.2663657 29.6921361,17.5049419 26.9307123,17.5049419 L22.6958478,17.5049419 C19.9344241,17.5049419 17.6958478,15.2663657 17.6958478,12.5049419 L17.6958478,5 C17.6958478,2.23857625 19.9344241,-3.80913106e-16 22.6958478,0 L26.9307123,0 Z" id="形状结合" fill-opacity="0.8" fill="#3B8CFE"></path>
                    </g>
                    <path d="M27.8124856,0 C29.750374,0 31.25,1.30758678 31.25,2.99679384 C31.25,5.02595198 29.2095081,6.66254512 26.0981876,9.13752147 L25.9063579,9.29009542 L25,9.99856125 L24.0936277,9.29009542 L23.6191168,8.91254105 C20.6674914,6.56198415 18.75,4.96383815 18.75,2.99679384 C18.75,1.30758678 20.249626,0 22.1875,0 C23.2812572,0 24.312126,0.435857998 25,1.14429826 C25.6878596,0.435870784 26.7187572,0 27.8124856,0 Z" id="路径" fill="#1E79F9" fill-rule="nonzero"></path>
                </g>
            </g>
        </g>
    </g>
</svg>