<?xml version="1.0" encoding="UTF-8"?>
<svg width="50px" height="50px" viewBox="0 0 50 50" version="1.1" xmlns="http://www.w3.org/2000/svg" xmlns:xlink="http://www.w3.org/1999/xlink">
    <title>用户群体 精准定位_icon</title>
    <g id="PC" stroke="none" stroke-width="1" fill="none" fill-rule="evenodd">
        <g id="公共切图" transform="translate(-556.000000, -630.000000)">
            <g id="用户群体-精准定位_icon" transform="translate(556.000000, 630.000000)">
                <rect id="矩形" x="0" y="0" width="50" height="50"></rect>
                <g id="编组-21" transform="translate(2.000000, 6.000000)" fill="#3B8CFE" fill-rule="nonzero">
                    <path d="M24.2187075,19.9692164 C26.9871585,20.5615307 29.6252393,21.7411184 31.8952158,23.4137132 C30.3650267,24.1159207 28.9871918,25.1402465 27.8879915,26.4035143 C26.4973753,27.9939413 25.5525742,29.9604249 25.1972514,32.0312566 C24.7519474,34.5643456 25.1819137,37.2380777 26.4135293,39.5055073 C17.6086791,39.5065155 8.80434006,39.5065155 5.09545827e-07,39.5055073 C-0.000510229516,37.2405981 0.382931719,34.9751849 1.14419187,32.8383164 C2.35177845,29.4250735 4.52206006,26.3510882 7.34828303,24.0488758 C9.79719913,22.0440808 12.7389659,20.6265592 15.8525148,19.9702246 C17.2497774,21.0152183 18.637326,22.0723103 20.0366336,23.1142794 C21.4303174,22.0652529 22.8199111,21.0111855 24.2187075,19.9692164 Z M20.0310098,24.5025634 C18.8852852,27.8386793 17.7456956,31.1768117 16.597926,34.5124235 C17.7395606,35.6305114 18.8873302,36.74255 20.0330548,37.856605 C21.1777569,36.7465828 22.3199028,35.6335359 23.4656274,34.5245219 C22.3229703,31.1828609 21.1823582,27.8406957 20.0310098,24.5025634 Z M24.3388526,0.914842401 C25.9927656,1.65435313 27.4421763,2.83142035 28.4897398,4.29431073 C29.6518246,5.90540569 30.3067435,7.86634421 30.3333288,9.84341385 C30.3680942,11.548775 29.942218,13.2591772 29.1124496,14.755338 C28.2075265,16.3946624 26.8296917,17.7738726 25.1849812,18.6968748 C23.6000877,19.5936638 21.7692801,20.0584416 19.9425625,20.0392859 C18.5217822,20.0292039 17.1025357,19.7297701 15.8044567,19.1596361 C14.2471711,18.4786007 12.8662687,17.4099144 11.8268853,16.0796015 C10.8309587,14.8092763 10.1514995,13.2984967 9.87695506,11.7151271 C9.54105989,9.80106965 9.78339522,7.78770503 10.5886234,6.01328253 C11.3135843,4.38605644 12.4966306,2.96399795 13.959334,1.92757387 C15.4164135,0.885604739 17.1562175,0.234815139 18.9466359,0.0558606116 C20.7784661,-0.133679955 22.661933,0.160712864 24.3388526,0.914842401 Z" id="形状结合"></path>
                    <path d="M34.9929157,24.5438994 C35.1386236,24.1028142 35.6774874,23.951081 36.1023411,23.9783022 C36.4750468,24.0004825 36.9208619,24.1749002 37.0226019,24.5660797 C37.050721,24.8634971 37.0266919,25.1639391 37.0343608,25.4633729 C39.0323491,25.7033232 40.9291087,26.6782473 42.2655318,28.163318 C43.3969412,29.3998687 44.1203684,30.9857588 44.3340735,32.6361734 C44.6285569,32.6457512 44.9255966,32.6190341 45.2195688,32.6502881 C45.6019883,32.7465707 45.767124,33.1639632 45.8100694,33.5143109 L45.8100694,33.7618226 C45.771214,34.110658 45.6157922,34.5194809 45.2466653,34.6379438 C44.9460468,34.6848248 44.6392933,34.6485298 44.3366297,34.660124 C44.0917381,36.6795378 43.0636024,38.5956117 41.4996704,39.923404 C40.2506721,40.9920903 38.6739586,41.6811913 37.0323158,41.8793015 C37.0261807,42.1394157 37.0394733,42.400034 37.0266919,42.6601482 C37.0149331,42.8960658 36.8257683,43.0790531 36.6238222,43.1803767 C36.2480491,43.3653804 35.7848512,43.3679009 35.404988,43.1934832 C35.1948618,43.094176 34.9924044,42.9116928 34.9760442,42.669222 C34.9627516,42.4055791 34.9765555,42.1414322 34.9704204,41.8772851 C32.9167052,41.6302775 30.9770001,40.5953657 29.6380207,39.0412337 C28.5679619,37.8132527 27.882879,36.2676903 27.6875792,34.6606281 C27.4222373,34.6560913 27.1568955,34.6656691 26.8920649,34.6570995 C26.6349032,34.6576035 26.4329571,34.4569728 26.3271271,34.2427315 C26.1440974,33.8676831 26.1466537,33.4069381 26.3363297,33.0349144 C26.4380696,32.8388205 26.620588,32.6563373 26.8557657,32.6412143 C27.1354227,32.6286119 27.4161023,32.6417184 27.6967818,32.6356693 C27.9319595,30.7821035 28.8266575,29.0187712 30.1932447,27.7242493 C31.4831435,26.4866904 33.1902272,25.6856798 34.9760442,25.4684138 C34.9888256,25.1604104 34.955594,24.8498865 34.9929157,24.5438994 M35.3569299,27.1203407 C33.4617041,27.2952625 31.6738419,28.3296701 30.5884455,29.8696874 C29.4820876,31.4046636 29.1098932,33.4240774 29.5920077,35.2458851 C30.0066363,36.8620211 31.0782288,38.3022271 32.5174143,39.1768359 C33.9494423,40.0595103 35.7321918,40.3700342 37.3835486,40.0191825 C38.9566832,39.6950479 40.3958688,38.7831359 41.3473161,37.5057533 C42.3054098,36.2324035 42.7675852,34.6071938 42.6152309,33.0288652 C42.4669667,31.3769383 41.6504909,29.7955851 40.3820648,28.7067349 C39.0236577,27.5251308 37.1591072,26.9333206 35.3569299,27.1203407 L35.3569299,27.1203407 Z" id="形状" fill-opacity="0.6"></path>
                    <path d="M35.4106118,29.5450487 C36.2434478,29.4280981 37.1110492,29.5616839 37.8646405,29.9311872 C38.7480908,30.3591658 39.4679392,31.1037176 39.8585387,31.9944575 C40.2762349,32.9330867 40.3191804,34.0264738 39.9791951,34.9948447 C39.53747,36.2903747 38.402993,37.327807 37.0578785,37.6605112 C36.0466142,37.9201213 34.9382113,37.7925847 34.0184618,37.302098 C33.1938059,36.8675661 32.5235494,36.1537644 32.1508438,35.3078891 C31.7740481,34.4640302 31.6983822,33.4951552 31.9350938,32.603407 C32.173339,31.6849417 32.748502,30.8577181 33.5250998,30.3006906 C34.0777675,29.9004373 34.7316639,29.6383067 35.4106118,29.5450487 L35.4106118,29.5450487 Z" id="路径"></path>
                </g>
            </g>
        </g>
    </g>
</svg>