<?xml version="1.0" encoding="UTF-8"?>
<svg width="50px" height="50px" viewBox="0 0 50 50" version="1.1" xmlns="http://www.w3.org/2000/svg" xmlns:xlink="http://www.w3.org/1999/xlink">
    <title>全球服务、安全保障_icon</title>
    <defs>
        <path d="M23,0 C10.2971554,0 0,10.2899656 0,22.9827446 C0,34.7077837 8.78587058,44.382307 20.1384808,45.7886214 C20.7783682,45.9237887 21.5577368,46.0028759 22.4866521,46.0028759 C22.7469209,46.0028759 22.9985621,45.9884964 23.2415755,45.9640513 C35.8322601,45.8346358 46,35.5964364 46,22.9827446 C46,10.2899656 35.7028446,0 23,0 Z" id="path-1"></path>
    </defs>
    <g id="PC" stroke="none" stroke-width="1" fill="none" fill-rule="evenodd">
        <g id="公共切图" transform="translate(-626.000000, -630.000000)">
            <g id="全球服务、安全保障_icon" transform="translate(626.000000, 630.000000)">
                <rect id="矩形" fill-opacity="0" fill="#FFFFFF" x="0" y="0" width="50" height="50"></rect>
                <g id="全球服务_icon" transform="translate(2.000000, 2.000000)">
                    <mask id="mask-2" fill="white">
                        <use xlink:href="#path-1"></use>
                    </mask>
                    <use id="蒙版" fill="#DFE8F4" fill-rule="nonzero" xlink:href="#path-1"></use>
                    <path d="M18.1184164,27.9972577 C21.1526917,28.8937747 22.6698293,28.1067149 22.6698293,25.6360782 C22.6698293,21.9301232 21.8711548,15.2967575 22.6698293,11.4613999 C23.4685038,7.62604224 26.1467765,7.20978386 27.0131489,4.77879134 C27.8795212,2.34779882 28.3936615,0.748170743 27.0131489,-0.725712909 C25.6326362,-2.19959656 14.9968479,0.404949487 9.53897979,3.42012012 C5.90040104,5.43023387 3.10407444,8.81094319 1.15,13.5622481 C1.16648881,15.7430485 2.45028826,17.6588459 5.00139835,19.3096403 C8.82806349,21.7858319 11.6061117,20.2184981 14.0815744,21.9301232 C16.5570372,23.6417484 16.0784153,27.116968 18.1184164,27.9972577 Z" id="路径-6" fill="#3B8CFE" mask="url(#mask-2)"></path>
                    <path d="M5.38358941,37.6797386 C7.0717147,37.2319706 12.5074176,35.8618966 15.0012248,38.3327928 C17.495032,40.8036889 17.6770478,44.0576737 16.2638332,44.9473856 C14.8506186,45.8370975 12.7178361,43.7450719 9.81693933,41.9285174 C6.91604254,40.1119629 3.69546411,38.1275065 5.38358941,37.6797386 Z" id="路径-7" fill-opacity="0.6" fill="#3B8CFE" mask="url(#mask-2)"></path>
                    <path d="M32.4157638,43.918945 C32.2251682,38.7897127 32.4301506,35.6291919 33.0307112,34.4373826 C33.9315521,32.6496685 35.4783785,34.4332349 37.1369619,32.8127363 C38.7955452,31.1922376 36.8023927,29.5740084 39.3553177,28.2580028 C41.0572677,27.3806657 43.0774019,27.3529981 45.4157203,28.175 C45.8130732,31.0105988 44.7902164,33.9630606 41.0544528,37.9246963 C38.5639437,40.5657868 35.6843807,42.5638697 32.4157638,43.918945 Z" id="路径-8" fill="#3B8CFE" mask="url(#mask-2)"></path>
                    <circle id="椭圆形" fill-opacity="0.657916302" fill="#3B8CFE" mask="url(#mask-2)" cx="30.475" cy="18.975" r="2.875"></circle>
                    <circle id="椭圆形备份" fill-opacity="0.4" fill="#3B8CFE" mask="url(#mask-2)" cx="28.175" cy="28.175" r="1.725"></circle>
                    <circle id="椭圆形备份-2" fill-opacity="0.4" fill="#3B8CFE" mask="url(#mask-2)" cx="34.5" cy="11.5" r="1.15"></circle>
                </g>
            </g>
        </g>
    </g>
</svg>