<?xml version="1.0" encoding="UTF-8"?>
<svg width="20px" height="20px" viewBox="0 0 20 20" version="1.1" xmlns="http://www.w3.org/2000/svg" xmlns:xlink="http://www.w3.org/1999/xlink">
    <title>垃圾箱</title>
    <g id="心愿单" stroke="none" stroke-width="1" fill="none" fill-rule="evenodd">
        <g id="心愿单切图" transform="translate(-24.000000, -26.000000)" fill="#cccccc" fill-rule="nonzero">
            <g id="垃圾箱" transform="translate(24.000000, 26.000000)">
                <path d="M7.4428627,7.91714285 L7.4428627,15.4171429 C7.44660839,15.5294981 7.40278769,15.6382932 7.32198929,15.7172393 C7.24119089,15.7961853 7.13076491,15.8381007 7.01739428,15.8328571 L6.16357293,15.8328571 C6.049943,15.8381267 5.93927799,15.7960205 5.85843145,15.7167559 C5.77758491,15.6374914 5.73394619,15.5283133 5.73810451,15.4157143 L5.73810451,7.91571428 C5.73435883,7.803359 5.77817953,7.69456391 5.85897793,7.61561787 C5.93977633,7.53667182 6.05020231,7.49475644 6.16357293,7.5 L7.01450977,7.5 C7.1281397,7.49473049 7.2388047,7.53683666 7.31965124,7.6161012 C7.40049778,7.69536573 7.4441365,7.80454386 7.43997819,7.91714285 L7.44142043,7.91714285 L7.4428627,7.91714285 Z M10.8523791,7.91714285 L10.8523791,15.4171429 C10.8561531,15.5297587 10.812139,15.6387931 10.7310177,15.7177869 C10.6498965,15.7967806 10.539083,15.8385131 10.4254684,15.8328571 L9.57453158,15.8328571 C9.46090165,15.8381267 9.35023664,15.7960205 9.2693901,15.7167559 C9.18854356,15.6374914 9.14490485,15.5283133 9.14906316,15.4157143 L9.14906316,7.91571428 C9.14531748,7.803359 9.18913818,7.69456391 9.26993658,7.61561787 C9.35073498,7.53667182 9.46116096,7.49475644 9.57453158,7.5 L10.4254684,7.5 C10.5390983,7.49473049 10.6497633,7.53683666 10.7306099,7.6161012 C10.8114564,7.69536573 10.8550951,7.80454386 10.8509368,7.91714285 L10.8523791,7.91714285 Z M14.2618955,7.91714285 L14.2618955,15.4171429 C14.2656695,15.5297587 14.2216554,15.6387931 14.1405341,15.7177869 C14.0594128,15.7967806 13.9485994,15.8385131 13.8349848,15.8328571 L12.984048,15.8328571 C12.870418,15.8381267 12.759753,15.7960205 12.6789065,15.7167559 C12.59806,15.6374914 12.5544212,15.5283133 12.5585796,15.4157143 L12.5571373,7.91571428 C12.5533916,7.803359 12.5972123,7.69456391 12.6780107,7.61561787 C12.7588091,7.53667182 12.8692351,7.49475644 12.9826057,7.5 L13.8349848,7.5 C13.9486147,7.49473049 14.0592797,7.53683666 14.1401263,7.6161012 C14.2209728,7.69536573 14.2646115,7.80454386 14.2604532,7.91714285 L14.2618955,7.91714285 Z M15.9652114,17.3442857 L15.9652114,5 L4.03470294,5 L4.03470294,17.3428571 C4.03134973,17.6590677 4.13155334,17.9678522 4.32035723,18.2228571 C4.38670144,18.2971429 4.43429623,18.3328571 4.46025701,18.3328571 L15.539743,18.3328571 C15.5657038,18.3328571 15.6118563,18.2971429 15.6796428,18.2228571 C15.8686632,17.9684219 15.9693623,17.6601711 15.9667069,17.3442857 L15.9652114,17.3442857 Z M7.01739428,3.33285715 L12.9826057,3.33285715 L12.343682,1.81 C12.288589,1.73633344 12.2079374,1.68545076 12.1172462,1.66714285 L7.89573417,1.66714285 C7.80504295,1.68545076 7.72439136,1.73633344 7.66929844,1.81 L7.01739428,3.33285715 Z M19.3747278,3.75 L19.3747278,4.58285715 C19.3788861,4.69545613 19.3352474,4.80463426 19.2544009,4.8838988 C19.1735543,4.96316333 19.0628893,5.00526951 18.9492594,5 L17.6699696,5 L17.6699696,17.3428571 C17.6699696,18.0642857 17.4622833,18.6857143 17.0440262,19.2128571 C16.6257691,19.7371429 16.1253029,20 15.539743,20 L4.46025701,20 C3.87469709,20 3.37278859,19.7457143 2.95597376,19.2385714 C2.53771667,18.73 2.3300304,18.1157143 2.3300304,17.3957143 L2.3300304,5 L1.0507406,5 C0.937110677,5.00526951 0.826445683,4.96316333 0.745599144,4.8838988 C0.664752606,4.80463426 0.621113895,4.69545613 0.625272206,4.58285715 L0.625272206,3.75 C0.621113895,3.63740101 0.664752606,3.52822289 0.745599144,3.44895835 C0.826445683,3.36969382 0.937110677,3.32758764 1.0507406,3.33285715 L5.16552499,3.33285715 L6.09867096,1.15857143 C6.23135942,0.837142852 6.47077554,0.564285703 6.81691934,0.338571426 C7.16306314,0.112857148 7.514976,0 7.86977339,0 L12.1302266,0 C12.485024,0 12.8369369,0.112857148 13.1830807,0.338571426 C13.5292245,0.564285703 13.7686406,0.838571426 13.901329,1.15857143 L14.834475,3.33285715 L18.9492594,3.33285715 C19.0628893,3.32758764 19.1735543,3.36969382 19.2544009,3.44895835 C19.3352474,3.52822289 19.3788861,3.63740101 19.3747278,3.75 Z" id="形状"></path>
            </g>
        </g>
    </g>
</svg>