<?xml version="1.0" encoding="UTF-8"?>
<svg width="15px" height="16px" viewBox="0 0 15 16" version="1.1" xmlns="http://www.w3.org/2000/svg" xmlns:xlink="http://www.w3.org/1999/xlink">
    <title>编组</title>
    <g id="心愿单" stroke="none" stroke-width="1" fill="none" fill-rule="evenodd">
        <g id="心愿单-编辑" transform="translate(-933.000000, -267.000000)" fill="#3B8CFE" fill-rule="nonzero">
            <g id="head备份" transform="translate(283.000000, 250.000000)">
                <g id="编组-2备份-2" transform="translate(650.000000, 15.000000)">
                    <g id="编组" transform="translate(0.000000, 2.000000)">
                        <path d="M5.45429016,6.33371428 L5.45429016,12.3337143 C5.45728671,12.4235985 5.42223016,12.5106346 5.35759143,12.5737914 C5.29295271,12.6369483 5.20461193,12.6704806 5.11391543,12.6662857 L4.43085834,12.6662857 C4.3399544,12.6705013 4.25142239,12.6368164 4.18674516,12.5734048 C4.12206792,12.5099931 4.08715696,12.4226506 4.09048361,12.3325714 L4.09048361,6.33257142 C4.08748707,6.2426872 4.12254362,6.15565113 4.18718234,6.09249429 C4.25182107,6.02933746 4.34016185,5.99580515 4.43085834,6 L5.11160781,6 C5.20251176,5.99578439 5.29104376,6.02946933 5.35572099,6.09288096 C5.42039823,6.15629259 5.4553092,6.24363509 5.45198255,6.33371428 L5.45313635,6.33371428 L5.45429016,6.33371428 Z M8.18190328,6.33371428 L8.18190328,12.3337143 C8.18492247,12.4238069 8.14971119,12.5110345 8.08481418,12.5742295 C8.01991717,12.6374245 7.93126639,12.6708105 7.84037473,12.6662857 L7.15962527,12.6662857 C7.06872132,12.6705013 6.98018932,12.6368164 6.91551208,12.5734048 C6.85083485,12.5099931 6.81592388,12.4226506 6.81925053,12.3325714 L6.81925053,6.33257142 C6.81625399,6.2426872 6.85131054,6.15565113 6.91594927,6.09249429 C6.98058799,6.02933746 7.06892877,5.99580515 7.15962527,6 L7.84037473,6 C7.93127868,5.99578439 8.01981068,6.02946933 8.08448791,6.09288096 C8.14916515,6.15629259 8.18407612,6.24363509 8.18074947,6.33371428 L8.18190328,6.33371428 Z M10.9095164,6.33371428 L10.9095164,12.3337143 C10.9125356,12.4238069 10.8773243,12.5110345 10.8124273,12.5742295 C10.7475303,12.6374245 10.6588795,12.6708105 10.5679878,12.6662857 L9.88723837,12.6662857 C9.79633443,12.6705013 9.70780243,12.6368164 9.6431252,12.5734048 C9.57844797,12.5099931 9.543537,12.4226506 9.54686365,12.3325714 L9.54570984,6.33257142 C9.54271329,6.2426872 9.57776985,6.15565113 9.64240857,6.09249429 C9.70704729,6.02933746 9.79538807,5.99580515 9.88608457,6 L10.5679878,6 C10.6588918,5.99578439 10.7474238,6.02946933 10.812101,6.09288096 C10.8767783,6.15629259 10.9116892,6.24363509 10.9083626,6.33371428 L10.9095164,6.33371428 Z M12.2721691,13.8754286 L12.2721691,4 L2.72776236,4 L2.72776236,13.8742857 C2.72507978,14.1272541 2.80524267,14.3742818 2.95628578,14.5782857 C3.00936116,14.6377143 3.04743698,14.6662857 3.06820561,14.6662857 L11.9317944,14.6662857 C11.952563,14.6662857 11.989485,14.6377143 12.0437142,14.5782857 C12.1949306,14.3747375 12.2754899,14.1281368 12.2733655,13.8754286 L12.2721691,13.8754286 Z M5.11391543,2.66628572 L9.88608457,2.66628572 L9.37494556,1.448 C9.33087122,1.38906675 9.26634995,1.34836061 9.19379697,1.33371428 L5.81658733,1.33371428 C5.74403436,1.34836061 5.67951309,1.38906675 5.63543876,1.448 L5.11391543,2.66628572 Z M14.9997822,3 L14.9997822,3.66628572 C15.0031089,3.75636491 14.9681979,3.84370741 14.9035207,3.90711904 C14.8388435,3.97053067 14.7503115,4.0042156 14.6594075,4 L13.6359757,4 L13.6359757,13.8742857 C13.6359757,14.4514286 13.4698267,14.9485714 13.135221,15.3702857 C12.8006153,15.7897143 12.4002423,16 11.9317944,16 L3.06820561,16 C2.59975767,16 2.19823087,15.7965714 1.86477901,15.3908571 C1.53017333,14.984 1.36402432,14.4925714 1.36402432,13.9165714 L1.36402432,4 L0.340592484,4 C0.249688542,4.0042156 0.161156546,3.97053067 0.0964793154,3.90711904 C0.0318020846,3.84370741 -0.00310888419,3.75636491 0.000217764654,3.66628572 L0.000217764654,3 C-0.00310888419,2.90992081 0.0318020846,2.82257831 0.0964793154,2.75916668 C0.161156546,2.69575505 0.249688542,2.66207011 0.340592484,2.66628572 L3.63241999,2.66628572 L4.37893677,0.926857141 C4.48508753,0.669714281 4.67662043,0.451428563 4.95353547,0.270857141 C5.23045051,0.0902857187 5.5119808,0 5.79581871,0 L9.20418129,0 C9.4880192,0 9.76954949,0.0902857187 10.0464645,0.270857141 C10.3233796,0.451428562 10.5149125,0.670857141 10.6210632,0.926857141 L11.36758,2.66628572 L14.6594075,2.66628572 C14.7503115,2.66207011 14.8388435,2.69575505 14.9035207,2.75916668 C14.9681979,2.82257831 15.0031089,2.90992081 14.9997822,3 Z" id="形状"></path>
                    </g>
                </g>
            </g>
        </g>
    </g>
</svg>