<?xml version="1.0" encoding="UTF-8"?>
<svg width="14px" height="14px" viewBox="0 0 14 14" version="1.1" xmlns="http://www.w3.org/2000/svg" xmlns:xlink="http://www.w3.org/1999/xlink">
    <title>优势</title>
    <g id="我的" stroke="none" stroke-width="1" fill="none" fill-rule="evenodd">
        <g id="公共切图" transform="translate(-236.000000, -153.000000)" fill="#418FFE" fill-rule="nonzero">
            <g id="优势" transform="translate(236.000000, 153.000000)">
                <path d="M8.63418181,4.79945454 C10.1258182,-1.02072727 7.546,0.084 7.546,0.084 C6.80272727,0.416181814 6.61945454,0.932909086 6.61945454,1.12381819 C6.61945454,3.97090909 3.81818181,4.79945454 3.81818181,4.79945454 L3.81818181,12.8710909 C3.81818181,13.6678182 4.84527273,13.9554545 5.24872727,13.9554545 L11.032,13.9554545 C11.5767273,13.9554545 12.0196364,12.4472727 12.0196364,12.4472727 C13.4501818,7.30545454 13.4501818,5.77690909 13.4501818,5.77690909 C13.4501818,4.71418181 12.4829091,4.79945454 12.4829091,4.79945454 L8.63418181,4.79945454 Z M2.78854546,4.80199779 L0.483636357,4.80199779 C0.00763635742,4.80199779 0,5.29581819 0,5.29581819 L0.476,13.4361818 C0.476,13.9554545 0.967272729,13.9554545 0.967272729,13.9554545 L2.96163636,13.9554545 C3.37781817,13.9554545 3.37400063,13.6118182 3.37400063,13.6118182 L3.37400063,5.41927273 C3.37400063,4.79436364 2.78854546,4.80199779 2.78854546,4.80199779 Z" id="形状"></path>
            </g>
        </g>
    </g>
</svg>