<?xml version="1.0" encoding="UTF-8"?>
<svg width="14px" height="14px" viewBox="0 0 14 14" version="1.1" xmlns="http://www.w3.org/2000/svg" xmlns:xlink="http://www.w3.org/1999/xlink">
    <title>向下_icon_black</title>
    <g id="公共头尾" stroke="none" stroke-width="1" fill="none" fill-rule="evenodd">
        <g id="公共切图" transform="translate(-283.000000, -75.000000)" fill="#333333" fill-rule="nonzero">
            <g id="编组" transform="translate(283.000000, 75.000000)">
                <g id="向下_icon_black" transform="translate(7.000000, 7.000000) rotate(90.000000) translate(-7.000000, -7.000000) ">
                    <path d="M9.77666952,4.72045261 C10.0617781,4.42092272 10.5179895,4.4274397 10.795646,4.73500871 C11.0733026,5.04257771 11.0672615,5.53472861 10.7821529,5.83425851 L7.5027417,9.27954782 C7.22295741,9.57348406 6.77704259,9.57348406 6.4972583,9.27954782 L3.21784708,5.83425851 C2.93273845,5.53472861 2.92669737,5.04257771 3.20435395,4.73500871 C3.48201053,4.4274397 3.93822186,4.42092272 4.22333048,4.72045261 L7,7.63757071 L9.77666952,4.72045261 Z" id="Path-4" transform="translate(7.000000, 7.000000) rotate(-90.000000) translate(-7.000000, -7.000000) "></path>
                </g>
            </g>
            <g id="向下_icon_black" transform="translate(283.000000, 75.000000)">
                <g transform="translate(7.000000, 7.000000) rotate(90.000000) translate(-7.000000, -7.000000) " id="Path-4">
                    <path d="M9.77666952,4.72045261 C10.0617781,4.42092272 10.5179895,4.4274397 10.795646,4.73500871 C11.0733026,5.04257771 11.0672615,5.53472861 10.7821529,5.83425851 L7.5027417,9.27954782 C7.22295741,9.57348406 6.77704259,9.57348406 6.4972583,9.27954782 L3.21784708,5.83425851 C2.93273845,5.53472861 2.92669737,5.04257771 3.20435395,4.73500871 C3.48201053,4.4274397 3.93822186,4.42092272 4.22333048,4.72045261 L7,7.63757071 L9.77666952,4.72045261 Z" transform="translate(7.000000, 7.000000) rotate(-90.000000) translate(-7.000000, -7.000000) "></path>
                </g>
            </g>
        </g>
    </g>
</svg>