<?xml version="1.0" encoding="UTF-8"?>
<svg width="20px" height="20px" viewBox="0 0 20 20" version="1.1" xmlns="http://www.w3.org/2000/svg" xmlns:xlink="http://www.w3.org/1999/xlink">
    <!-- Generator: Sketch 62 (91390) - https://sketch.com -->
    <title>闭眼_icon</title>
    <desc>Created with Sketch.</desc>
    <g id="设计规范" stroke="none" stroke-width="1" fill="none" fill-rule="evenodd">
        <g id="图标" transform="translate(-400.000000, -354.000000)">
            <g id="编组-22备份-6" transform="translate(360.000000, 354.000000)">
                <g id="闭眼_icon" transform="translate(40.000000, 0.000000)">
                    <g>
                        <rect id="矩形" fill-opacity="0" fill="#FFFFFF" x="0" y="0" width="20" height="20"></rect>
                        <path d="M0.770459188,4.53724069 C0.688457818,3.85969926 1.657099,3.47875227 1.93897871,4.12092005 C2.67186595,5.69640795 3.65331984,7.17393804 5.00890499,8.21337911 C7.09993992,9.89498795 9.95717515,10.4391979 12.4607795,9.58478826 C14.9848841,8.77391539 16.9580421,6.62700701 18.0445602,4.1236411 C18.3033771,3.40800498 19.3822076,3.81616246 19.2258925,4.54268279 C18.7697599,5.83518149 17.9753716,6.94536985 17.160483,8.00657932 C18.062498,9.08411508 18.9363251,10.1888613 19.7999021,11.3017707 C20.276535,11.7044861 19.8255275,12.624201 19.2438303,12.4310065 C18.9132623,12.3956328 18.7620722,12.02557 18.5416935,11.8106071 C17.788306,10.8419133 17.0041679,9.897709 16.263593,8.91813103 C15.7331466,9.32900957 15.1898876,9.72084076 14.6338158,10.0881825 C15.2103879,11.5248968 15.8689614,12.9235165 16.4045328,14.3792782 C16.5505978,15.0078407 15.7075212,15.4785824 15.3205772,14.9643039 C14.6466285,13.6010579 14.1469326,12.1425752 13.5088595,10.7602818 C12.6196571,10.8827291 11.7099544,11.2990497 10.7746263,11.3453075 C10.725938,12.8037903 10.7720638,14.2649941 10.6874998,15.7234768 C10.6259988,16.4227867 9.57023118,16.4309498 9.5112927,15.7153137 C9.47797964,14.2677151 9.5471683,12.8201166 9.54973084,11.372518 C8.5477766,11.2936076 7.55863508,11.0732026 6.61049424,10.714024 C5.9493582,12.1208068 5.39584895,13.5874527 4.69627477,14.9724671 C4.30420572,15.4785824 3.44062879,15.0187249 3.61231916,14.3819992 C4.17607858,12.9452849 4.85002733,11.5575494 5.45222489,10.1398824 C4.8610687,9.7702397 4.29195689,9.36221386 3.74813393,8.91813103 C2.86405666,10.0392036 1.99791719,11.1766025 1.07796432,12.2623014 C0.773021731,12.6731799 0.0298843171,12.4092381 0.0221966887,11.8840754 C-0.0931177376,11.5221758 0.270763341,11.2718392 0.427078452,10.9997342 C1.23427944,9.9956668 2.03379279,8.98343623 2.83843123,7.97664777 C1.99279211,6.95081195 1.21634164,5.82429729 0.770459188,4.53724069 L0.770459188,4.53724069 Z" id="路径" fill="#3D4A5E" fill-rule="nonzero"></path>
                    </g>
                </g>
                <g id="闭眼_icon" transform="translate(40.000000, 0.000000)">
                    <g>
                        <rect id="矩形" fill-opacity="0" fill="#FFFFFF" x="0" y="0" width="20" height="20"></rect>
                        <path d="M0.770459188,4.53724069 C0.688457818,3.85969926 1.657099,3.47875227 1.93897871,4.12092005 C2.67186595,5.69640795 3.65331984,7.17393804 5.00890499,8.21337911 C7.09993992,9.89498795 9.95717515,10.4391979 12.4607795,9.58478826 C14.9848841,8.77391539 16.9580421,6.62700701 18.0445602,4.1236411 C18.3033771,3.40800498 19.3822076,3.81616246 19.2258925,4.54268279 C18.7697599,5.83518149 17.9753716,6.94536985 17.160483,8.00657932 C18.062498,9.08411508 18.9363251,10.1888613 19.7999021,11.3017707 C20.276535,11.7044861 19.8255275,12.624201 19.2438303,12.4310065 C18.9132623,12.3956328 18.7620722,12.02557 18.5416935,11.8106071 C17.788306,10.8419133 17.0041679,9.897709 16.263593,8.91813103 C15.7331466,9.32900957 15.1898876,9.72084076 14.6338158,10.0881825 C15.2103879,11.5248968 15.8689614,12.9235165 16.4045328,14.3792782 C16.5505978,15.0078407 15.7075212,15.4785824 15.3205772,14.9643039 C14.6466285,13.6010579 14.1469326,12.1425752 13.5088595,10.7602818 C12.6196571,10.8827291 11.7099544,11.2990497 10.7746263,11.3453075 C10.725938,12.8037903 10.7720638,14.2649941 10.6874998,15.7234768 C10.6259988,16.4227867 9.57023118,16.4309498 9.5112927,15.7153137 C9.47797964,14.2677151 9.5471683,12.8201166 9.54973084,11.372518 C8.5477766,11.2936076 7.55863508,11.0732026 6.61049424,10.714024 C5.9493582,12.1208068 5.39584895,13.5874527 4.69627477,14.9724671 C4.30420572,15.4785824 3.44062879,15.0187249 3.61231916,14.3819992 C4.17607858,12.9452849 4.85002733,11.5575494 5.45222489,10.1398824 C4.8610687,9.7702397 4.29195689,9.36221386 3.74813393,8.91813103 C2.86405666,10.0392036 1.99791719,11.1766025 1.07796432,12.2623014 C0.773021731,12.6731799 0.0298843171,12.4092381 0.0221966887,11.8840754 C-0.0931177376,11.5221758 0.270763341,11.2718392 0.427078452,10.9997342 C1.23427944,9.9956668 2.03379279,8.98343623 2.83843123,7.97664777 C1.99279211,6.95081195 1.21634164,5.82429729 0.770459188,4.53724069 L0.770459188,4.53724069 Z" id="路径" fill="#3D4A5E" fill-rule="nonzero"></path>
                    </g>
                </g>
            </g>
        </g>
    </g>
</svg>