<?xml version="1.0" encoding="UTF-8"?>
<svg width="16px" height="18px" viewBox="0 0 16 18" version="1.1" xmlns="http://www.w3.org/2000/svg" xmlns:xlink="http://www.w3.org/1999/xlink">
    <title>官方充值</title>
    <g id="购物流程" stroke="none" stroke-width="1" fill="none" fill-rule="evenodd" fill-opacity="0.5">
        <g id="公共切图" transform="translate(-89.000000, -48.000000)" fill="#FFFFFF" fill-rule="nonzero">
            <path d="M89,48 L105,48 L105,50.9931084 L89,50.9931084 L89,48 Z M96.9796589,53.3733602 C98.7286408,53.3733602 100.318408,54.0884616 101.499225,55.2551581 L104.755742,51.6166454 L89.2035762,51.6166454 L92.4601137,55.2551581 C93.6409302,54.0884616 95.2306977,53.3733602 96.9796589,53.3733602 Z M97.0000413,54.2355598 C93.8184393,54.2355598 91.2392145,56.8691862 91.2392145,60.1178432 C91.2392145,63.3665003 93.8184393,66 97.0000413,66 C100.181602,66 102.760868,63.3665003 102.760868,60.1178432 C102.760868,56.8691862 100.181602,54.2355598 97.0000413,54.2355598 Z M99.2452713,63.3802835 L97.0000413,62.1750446 L94.7547494,63.3802835 L95.1835866,60.8274778 L93.3671525,59.0195983 L95.877416,58.6471352 L97.0000413,56.3244858 L98.122646,58.6471352 L100.632889,59.0195983 L98.8164961,60.8274778 L99.2452713,63.3802835 Z" id="官方充值"></path>
        </g>
    </g>
</svg>