<?xml version="1.0" encoding="UTF-8"?>
<svg width="16px" height="18px" viewBox="0 0 16 18" version="1.1" xmlns="http://www.w3.org/2000/svg" xmlns:xlink="http://www.w3.org/1999/xlink">
    <title>售后无忧</title>
    <g id="购物流程" stroke="none" stroke-width="1" fill="none" fill-rule="evenodd" fill-opacity="0.5">
        <g id="公共切图" transform="translate(-231.000000, -48.000000)" fill="#FFFFFF" fill-rule="nonzero">
            <path d="M238.522388,48.0850394 C238.761194,47.9716535 239.119403,47.9716535 239.358209,48.0850394 L239.358209,48.0850394 L239.835821,48.4251969 C239.835821,48.4251969 240.910448,49.2188976 242.58209,49.6724409 C244.004975,50.296063 245.427861,50.3480315 245.655127,50.3523622 L246.402985,50.3527559 C246.761194,50.3527559 247,50.6929134 247,51.0330709 L247,51.0330709 L247,58.0629921 C247,59.8771654 246.044776,61.8047244 244.134328,63.5055118 C242.462687,65.0929134 240.432836,66 239,66 C237.567164,66 235.537313,65.0929134 233.865672,63.5055118 C232.074627,61.8047244 231,59.8771654 231,58.0629921 L231,58.0629921 L231,51.1464567 C231,50.8062992 231.238806,50.4661417 231.597015,50.4661417 L231.597015,50.4661417 L232.313433,50.4661417 C232.432836,50.4661417 233.865672,50.3527559 235.41791,49.7858268 C237.089552,49.1055118 238.164179,48.4251969 238.164179,48.4251969 L238.164179,48.4251969 Z M243.876385,53.7100478 C243.426257,53.2966507 242.826087,53.2966507 242.375959,53.7100478 L242.375959,53.7100478 L237.574595,58.1196172 L235.624041,56.3282297 C235.173913,55.9148325 234.573743,55.9148325 234.123615,56.3282297 C233.973572,56.4660287 233.823529,56.7416268 233.823529,57.0172249 C233.823529,57.292823 233.973572,57.5684211 234.123615,57.7062201 L234.123615,57.7062201 L236.824382,60.3244019 C236.974425,60.462201 237.27451,60.6 237.574595,60.6 C237.87468,60.6 238.174766,60.462201 238.324808,60.3244019 L238.324808,60.3244019 L243.876385,55.2258373 C244.139705,54.9820539 244.176471,54.8124402 244.176471,54.3990431 C244.176471,54.123445 244.026428,53.8478469 243.876385,53.7100478 Z" id="售后无忧"></path>
        </g>
    </g>
</svg>