<?xml version="1.0" encoding="UTF-8"?>
<svg width="18px" height="18px" viewBox="0 0 18 18" version="1.1" xmlns="http://www.w3.org/2000/svg" xmlns:xlink="http://www.w3.org/1999/xlink">
    <title>极速发货</title>
    <g id="购物流程" stroke="none" stroke-width="1" fill="none" fill-rule="evenodd" fill-opacity="0.5">
        <g id="公共切图" transform="translate(-41.000000, -48.000000)" fill="#FFFFFF">
            <path d="M50,48 C54.9705627,48 59,52.0294373 59,57 C59,61.9705627 54.9705627,66 50,66 C45.0294373,66 41,61.9705627 41,57 C41,52.0294373 45.0294373,48 50,48 Z M52.3994255,52.5 L48.3500377,52.5 C48.1633414,52.5 47.9960529,52.5984567 47.929589,52.7473915 L47.929589,52.7473915 L45.5298962,58.1244433 C45.4176966,58.3758043 45.6351959,58.6452203 45.950495,58.6452203 L45.950495,58.6452203 L48.3654877,58.6452203 L47.1651913,62.5157705 C47.0435417,62.9079859 47.6247899,63.1722799 47.938289,62.8672662 L47.938289,62.8672662 L54.3873695,56.5941245 C54.6425187,56.3459647 54.4361193,55.9566944 54.0492705,55.9566944 L54.0492705,55.9566944 L51.4188784,55.9566944 L52.8161242,53.0289722 C52.9367239,52.7763307 52.7189245,52.5 52.3994255,52.5 L52.3994255,52.5 Z" id="极速发货"></path>
        </g>
    </g>
</svg>