<?xml version="1.0" encoding="UTF-8"?>
<svg width="18px" height="18px" viewBox="0 0 18 18" version="1.1" xmlns="http://www.w3.org/2000/svg" xmlns:xlink="http://www.w3.org/1999/xlink">
    <title>全天客服</title>
    <g id="购物流程" stroke="none" stroke-width="1" fill="none" fill-rule="evenodd" fill-opacity="0.5">
        <g id="公共切图" transform="translate(-183.000000, -48.000000)" fill="#FFFFFF" fill-rule="nonzero">
            <path d="M192.014508,48 C196.993254,48 201,51.6022378 201,56.0466414 C201,60.4910992 196.934538,64.0933189 191.955792,64.0933189 C191.243748,64.0933189 190.493472,64.0149787 189.82884,63.8754703 L189.82884,63.8754703 L186.204954,66 C186.204954,66 186.439854,62.4561829 186.427074,62.4476151 C184.26936,60.9773541 183,58.657209 183,56.0466414 C183,51.6022197 187.035762,48 192.014508,48 Z M187.853232,54.9524458 C187.107751,54.9524458 186.503232,55.556857 186.503232,56.3024458 C186.503232,57.0479914 187.107751,57.6524458 187.853232,57.6524458 C188.598864,57.6524458 189.203232,57.048013 189.203232,56.3024458 C189.203232,55.556857 188.598864,54.9524458 187.853232,54.9524458 Z M192.353232,54.9524458 C191.6076,54.9524458 191.003232,55.556857 191.003232,56.3024458 C191.003232,57.0479914 191.6076,57.6524458 192.353232,57.6524458 C193.098691,57.6524458 193.703232,57.048013 193.703232,56.3024458 C193.703232,55.556857 193.098713,54.9524458 192.353232,54.9524458 Z M196.853232,54.9524458 C196.1076,54.9524458 195.503232,55.556857 195.503232,56.3024458 C195.503232,57.0479914 196.1076,57.6524458 196.853232,57.6524458 C197.598864,57.6524458 198.203232,57.048013 198.203232,56.3024458 C198.203232,55.556857 197.598864,54.9524458 196.853232,54.9524458 Z" id="全天客服"></path>
        </g>
    </g>
</svg>