<?xml version="1.0" encoding="UTF-8"?>
<svg width="30px" height="30px" viewBox="0 0 30 30" version="1.1" xmlns="http://www.w3.org/2000/svg" xmlns:xlink="http://www.w3.org/1999/xlink">
    <title>心愿单_icon</title>
    <g id="购物流程" stroke="none" stroke-width="1" fill="none" fill-rule="evenodd">
        <g id="公共切图" transform="translate(-324.000000, -44.000000)">
            <g id="心愿单_icon" transform="translate(324.000000, 44.000000)">
                <rect id="矩形" fill-opacity="0" fill="#FFFFFF" x="0" y="0" width="30" height="30"></rect>
                <g id="心" transform="translate(1.000000, 4.000000)" fill-rule="nonzero">
                    <path d="M21.9375919,13.4575545 C19.4522968,19.0772146 11.8572568,23 11.8572568,23 C11.8572568,23 1.00011398,17.4143519 1.00011398,9.98148148 C1.00011398,6.67847222 3.58292648,4 6.76797112,4 C8.9160738,4 10.7906274,5.21828704 11.7830381,7.02592593 C11.8148461,7.08530093 11.897547,7.08530093 11.929355,7.02592593 C12.567297,5.8664162 13.5673311,4.94939997 14.7693911,4.44087186" id="路径" stroke="#FFFFFF" stroke-width="2" stroke-linecap="round"></path>
                    <path d="M24.0009962,4.00109404 L24.0009962,0.999980507 C24.0009962,0.447706523 23.5532897,-1.01451085e-16 23.0010157,0 C22.4487417,-3.89066749e-16 22.0010352,0.447706523 22.0010352,0.999980507 L22.0010352,4.00109404 L22.0010352,4.00109404 L18.9997474,4.00109404 C18.4475872,4.00109404 17.9999728,4.44870838 17.9999728,5.00086865 C17.9999728,5.55302893 18.4475872,6.00064327 18.9997474,6.00064327 L22.0010669,6.00064327 L22.0010669,6.00064327 L22.0010669,9.00080652 C22.0010669,9.5530805 22.4487734,10.000787 23.0010474,10.000787 C23.5533214,10.000787 24.0010279,9.5530805 24.0010279,9.00080652 L24.0010279,6.00064327 L24.0010279,6.00064327 L27.0004468,6.00064327 C27.552607,6.00064327 28.0002214,5.55302893 28.0002214,5.00086865 C28.0002214,4.44870838 27.552607,4.00109404 27.0004468,4.00109404 L24.0009962,4.00109404 L24.0009962,4.00109404 Z" id="路径" fill="#FFFFFF"></path>
                </g>
            </g>
        </g>
    </g>
</svg>