<?xml version="1.0" encoding="UTF-8"?>
<svg width="18px" height="18px" viewBox="0 0 18 18" version="1.1" xmlns="http://www.w3.org/2000/svg" xmlns:xlink="http://www.w3.org/1999/xlink">
    <title>多国货币</title>
    <g id="购物流程" stroke="none" stroke-width="1" fill="none" fill-rule="evenodd" fill-opacity="0.5">
        <g id="公共切图" transform="translate(-135.000000, -48.000000)" fill="#FFFFFF" fill-rule="nonzero">
            <path d="M144,48 C148.970089,48 153,52.0299107 153,57 C153,61.9700893 148.970089,66 144,66 C139.029911,66 135,61.9700893 135,57 C135,52.0299107 139.029911,48 144,48 Z M145.02381,50.7 L143.619048,50.7 L143.619048,51.9385321 C142.587302,52.0706422 141.777778,52.3899083 141.190476,52.8963303 C140.603175,53.4027523 140.309524,54.0302752 140.309524,54.7788991 C140.309524,55.8027523 141.222222,56.6119266 143.047619,57.206422 C144,57.5146789 144.68254,57.7376147 145.095238,57.8752294 C145.507937,58.012844 145.785714,58.1752294 145.928571,58.3623853 C146.071429,58.5495413 146.142857,58.7642202 146.142857,59.006422 C146.142857,60.0853211 145.396825,60.6247706 143.904762,60.6247706 C142.777778,60.6247706 141.825397,60.1018349 141.047619,59.0559633 L141.047619,59.0559633 L139.5,60.0798165 C140.452381,61.2577982 141.825397,61.912844 143.619048,62.0449541 L143.619048,62.0449541 L143.619048,63.3 L145.02381,63.3 L145.02381,61.9788991 C146.134921,61.8247706 146.992063,61.4642202 147.595238,60.8972477 C148.198413,60.3302752 148.5,59.6504587 148.5,58.8577982 C148.5,58.2853211 148.27381,57.7899083 147.821429,57.3715596 C147.369048,56.953211 146.150794,56.4302752 144.166667,55.8027523 C143.150794,55.4834862 142.642857,55.0816514 142.642857,54.5972477 C142.642857,54.2119266 142.833333,53.8981651 143.214286,53.6559633 C143.595238,53.4137615 144.071429,53.2926606 144.642857,53.2926606 C145.547619,53.2926606 146.333333,53.5788991 147,54.1513761 L147,54.1513761 L148.047619,53.0944954 C147.269841,52.4229358 146.261905,52.0431193 145.02381,51.9550459 L145.02381,51.9550459 L145.02381,50.7 Z" id="多国货币"></path>
        </g>
    </g>
</svg>