<?xml version="1.0" encoding="UTF-8"?>
<svg width="16px" height="20px" viewBox="0 0 16 20" version="1.1" xmlns="http://www.w3.org/2000/svg" xmlns:xlink="http://www.w3.org/1999/xlink">
    <title>提示</title>
    <g id="购物流程" stroke="none" stroke-width="1" fill="none" fill-rule="evenodd">
        <g id="公共切图" transform="translate(-282.000000, -48.000000)" fill="#FFBA00" fill-rule="nonzero">
            <g id="提示" transform="translate(282.000000, 48.000000)">
                <path d="M3.8798511,13.2200836 C1.55194043,11.9751346 0,9.70835244 0,7.11908348 C0,3.18736947 3.57986262,0 7.999693,0 C12.4195234,0 15.999386,3.18736947 15.999386,7.11908348 C15.999386,9.70835244 14.4454456,11.9751346 12.1195349,13.2200836 C11.9895399,13.8575575 11.6775519,14.4350339 11.231569,14.9150142 L4.76781703,14.9150142 C4.31694916,14.4334811 4.00991657,13.8487408 3.87785117,13.2200836 L3.8798511,13.2200836 Z M13.7134737,7.79593076 C13.7312025,4.82002146 11.173985,2.39326674 7.999693,2.3736528 C7.49371242,2.3736528 7.23772225,2.60051851 7.23772225,3.05050008 C7.23772225,3.16299548 7.49371242,3.38798627 7.999693,3.38798627 C10.4395994,3.38798627 12.5715176,5.28728349 12.5715176,7.79593076 C12.5715176,7.90842616 12.8275077,8.13529187 13.3314884,8.13529187 C13.4574836,8.13529187 13.7134737,7.90842616 13.7134737,7.79780568 L13.7134737,7.79593076 Z M4.57182455,16.6080699 C4.57182455,16.2349602 4.91181151,15.9330975 5.33179538,15.9330975 L10.6675906,15.9330975 C11.0875745,15.9330975 11.4275614,16.2330852 11.4275614,16.6080699 C11.4275614,16.9830546 11.0875745,17.2867921 10.6675906,17.2867921 L5.33179538,17.2867921 C5.13518479,17.2918285 4.94452459,17.2232761 4.80192883,17.0962771 C4.65933306,16.9692781 4.57653537,16.7942827 4.57182455,16.6099448 L4.57182455,16.6080699 Z M11.0715751,18.3048754 C10.5115966,19.3079593 9.34564133,19.999806 7.999693,19.999806 C6.71960261,20.0129187 5.53701967,19.360421 4.92781089,18.3048754 L11.0715751,18.3048754 Z" id="形状"></path>
            </g>
        </g>
    </g>
</svg>