<?xml version="1.0" encoding="UTF-8"?>
<svg width="50px" height="50px" viewBox="0 0 50 50" version="1.1" xmlns="http://www.w3.org/2000/svg" xmlns:xlink="http://www.w3.org/1999/xlink">
    <title>优惠券icon备份 8</title>
    <defs>
        <rect id="path-1" x="0" y="0" width="50" height="50"></rect>
    </defs>
    <g id="我的" stroke="none" stroke-width="1" fill="none" fill-rule="evenodd">
        <g id="优惠券" transform="translate(-978.000000, -380.000000)">
            <g id="编组-10" transform="translate(283.000000, 380.000000)">
                <g id="编组-11备份-8" transform="translate(510.000000, 0.000000)">
                    <g id="形状" transform="translate(185.000000, 0.000000)">
                        <mask id="mask-2" fill="white">
                            <use xlink:href="#path-1"></use>
                        </mask>
                        <use id="蒙版" fill-opacity="0" fill="#FFFFFF" xlink:href="#path-1"></use>
                        <path d="M22.2166307,49.9974168 C20.8473686,49.9974168 19.5625544,49.4597648 18.6034677,48.4690353 L14.4956814,44.2282298 C13.7597785,43.4610186 13.7718425,42.2407298 14.5379054,41.4976827 C15.4004802,40.6579791 15.8770075,39.5343469 15.8951035,38.3261402 C15.9071675,37.1179335 15.4487361,35.9882602 14.6102893,35.1243925 C12.9273636,33.3966569 9.95962377,33.3664517 8.25257015,35.039818 C7.89065066,35.40228 7.32967544,35.589552 6.88330806,35.589552 C6.37662077,35.57747 5.87596547,35.3720748 5.52610995,34.9975307 L1.43038767,30.7688073 C0.495428971,29.8143241 -0.0233223053,28.533625 0.000805661068,27.1864745 C0.0128696442,25.833283 0.561780879,24.570707 1.52689953,23.6222648 L28.2546542,-2.60790238 C30.1969555,-4.49874585 33.5145509,-4.45645861 35.3905003,-2.52332791 L39.4982866,1.71747756 C40.2341895,2.4846888 40.2221256,3.70497756 39.4560626,4.44802467 C38.5934878,5.28772832 38.1169605,6.4234426 38.0988645,7.61956722 C38.0807685,8.81569184 38.5452319,9.95744716 39.3776467,10.8213149 C41.0605724,12.5490505 44.0283122,12.5792557 45.7474298,10.8938073 C46.1093493,10.5313453 46.6281006,10.3863605 47.1166919,10.3440733 C47.6233792,10.3561554 48.1240345,10.5615505 48.47389,10.9360946 L52.5696123,15.1769 C53.504571,16.1253423 54.0233223,17.4000004 53.9991943,18.7531918 C53.9871304,20.1003423 53.4502831,21.3689593 52.4851645,22.3174016 L25.7453458,48.5536098 C24.7922911,49.48997 23.5376368,49.9974168 22.2166307,49.9974168 Z M18.4526679,42.7662997 L21.3661199,45.7807754 C21.8004233,46.2278119 22.5906142,46.239894 23.0490455,45.7928575 L49.7948962,19.5385262 C50.0241119,19.3089669 50.1447517,19.0189973 50.1568157,18.6988225 C50.1568157,18.3846888 50.0422079,18.0886782 49.8129922,17.8651599 L46.8995402,14.8506842 C45.614726,15.6299776 44.1368881,16.0347268 42.6047622,16.0347268 C40.3307014,16.0407678 38.2074404,15.1466949 36.6210266,13.5156159 C35.0647728,11.914742 34.2142619,9.80642133 34.2444219,7.57123895 C34.2625179,5.99452923 34.7088852,4.48427087 35.5413001,3.18544868 L32.6278481,0.170972997 C32.1935448,-0.276063477 31.4033539,-0.288145544 30.9449225,0.15889093 L4.19303981,26.4071812 C3.96382413,26.6367405 3.8431843,26.9267101 3.83112032,27.2468849 C3.83112032,27.5670596 3.94572816,27.8570292 4.17494384,28.0865885 L7.08839577,31.1010642 C8.37320998,30.3217709 9.85104792,29.9170216 11.3831738,29.9170216 C13.6572346,29.9170216 15.7804957,30.8110946 17.3729414,32.4421736 C18.9291953,34.0430475 19.7797061,36.1513681 19.7495461,38.3865505 C19.7254181,39.9572192 19.2790508,41.4674776 18.4526679,42.7662997 Z M17.6323171,27.4160338 C17.1316618,27.4160338 16.6491024,27.2287618 16.263055,26.8421356 C15.503024,26.0809654 15.503024,24.8667177 16.263055,24.1115885 L27.0422239,13.3162618 C27.8022549,12.5550915 29.0146852,12.5550915 29.7686841,13.3162618 C30.5287151,14.077432 30.5287151,15.2916797 29.7686841,16.0468089 L18.9955472,26.8542177 C18.6155317,27.2287618 18.1269404,27.4160338 17.6323171,27.4160338 Z M23.398901,33.1973028 C22.8982457,33.1973028 22.4156864,33.0100307 22.0296389,32.6234046 C21.269608,31.8622344 21.269608,30.6479867 22.0296389,29.8928575 L32.8088079,19.1035718 C33.5688388,18.3484426 34.7812691,18.3484426 35.5413001,19.1035718 C36.301331,19.864742 36.301331,21.0789897 35.5413001,21.8341189 L24.7621311,32.6354867 C24.3881476,33.0100307 23.8874923,33.1973028 23.398901,33.1973028 Z" fill="#FFFFFF" fill-rule="nonzero" opacity="0.0951636905" mask="url(#mask-2)"></path>
                    </g>
                </g>
            </g>
        </g>
    </g>
</svg>