<?xml version="1.0" encoding="UTF-8"?>
<svg width="14px" height="12px" viewBox="0 0 14 12" version="1.1" xmlns="http://www.w3.org/2000/svg" xmlns:xlink="http://www.w3.org/1999/xlink">
    <title>中英文切换翻译</title>
    <g id="我的" stroke="none" stroke-width="1" fill="none" fill-rule="evenodd">
        <g id="新建账单地址" transform="translate(-1408.000000, -455.000000)" fill="#3B8CFE" fill-rule="nonzero">
            <g id="弹窗" transform="translate(822.000000, 160.000000)">
                <g id="编组-23备份-5" transform="translate(20.000000, 291.000000)">
                    <g id="编组-3" transform="translate(566.000000, 0.000000)">
                        <path d="M2.08313842,12.8421045 L2.08313842,13.4736834 C2.08290843,14.1347095 2.64303254,14.6841064 3.36774046,14.7336833 L3.47189738,14.7368412 L4.86065632,14.7368412 C5.24410999,14.7368946 5.55492949,15.0196465 5.55492949,15.3684201 C5.55492949,15.7171938 5.24410999,15.9999456 4.86065632,15.999999 L3.47189738,15.999999 C1.9379166,15.999999 0.694379478,14.868929 0.694379478,13.4736834 L0.694379478,12.8421045 C0.694438183,12.4933309 1.00530527,12.2106223 1.38875895,12.2106223 C1.77221263,12.2106223 2.08307971,12.4933309 2.08313842,12.8421045 L2.08313842,12.8421045 Z M11.1975634,9.25094694 L13.9750813,15.5667359 C14.0179935,15.6641279 14.0049213,15.7745459 13.940197,15.8613958 C13.8754727,15.9482457 13.7675496,16.0001845 13.6521948,15.9999995 L12.9036538,15.9999995 C12.7617988,15.9999995 12.6342317,15.9214488 12.5814617,15.8016832 L11.8350037,14.1052623 L8.99499169,14.1052623 L8.24992252,15.8016832 C8.19705847,15.9216628 8.06914413,16.0002274 7.92703607,15.9999995 L7.17988376,15.9999995 C7.06465191,15.9999995 6.95694148,15.9479499 6.89238161,15.861134 C6.82782173,15.774318 6.81482542,15.6640241 6.85769168,15.5667359 L9.63520957,9.25094694 C9.6879796,9.13118136 9.81554673,9.05263067 9.95740164,9.05263067 L10.8753713,9.05263067 C11.0174794,9.05240282 11.1453937,9.13096737 11.1982578,9.25094694 L11.1975634,9.25094694 Z M10.4156921,10.8747363 L9.5498009,12.8421045 L11.2801945,12.8421045 L10.4156921,10.8747363 Z M4.16627684,4.31578946 L4.16627684,5.2631578 L6.596605,5.2631578 C6.7883526,5.2631578 6.94379474,5.40454155 6.94379474,5.57894724 L6.94379474,9.36842061 C6.94379474,9.54282631 6.7883526,9.68421005 6.596605,9.68421005 L4.16627684,9.68421005 L4.16627684,11.2631573 C4.16627684,11.437563 4.0108347,11.5789467 3.81908711,11.5789467 L3.12470763,11.5789467 C2.93296003,11.5789467 2.7775179,11.437563 2.7775179,11.2631573 L2.7775179,9.68421005 L0.347189747,9.68421005 C0.255109303,9.68421006 0.166800232,9.65093948 0.101689524,9.59171747 C0.0365788153,9.53249546 0,9.45217318 0,9.36842061 L0,5.57894724 C0,5.49519467 0.0365788153,5.41487239 0.101689524,5.35565038 C0.166800232,5.29642837 0.255109303,5.2631578 0.347189747,5.2631578 L2.7775179,5.2631578 L2.7775179,4.31578946 C2.77751789,4.23203689 2.8140967,4.1517146 2.87920741,4.09249259 C2.94431811,4.03327058 3.03262718,4 3.12470763,4 L3.81908711,4 C3.91116755,4 3.99947662,4.03327058 4.06458733,4.09249259 C4.12969803,4.1517146 4.16627684,4.23203689 4.16627684,4.31578946 Z M10.4156921,4.6315789 C11.9496729,4.6315789 13.19321,5.76264891 13.19321,7.15789448 L13.19321,7.78947337 C13.1931513,8.138247 12.8822842,8.42095558 12.4988305,8.42095558 C12.1153768,8.42095558 11.8045098,8.138247 11.8044511,7.78947337 L11.8044511,7.15789448 C11.8044511,6.82288421 11.6581358,6.50159507 11.397693,6.26470703 C11.1372501,6.02781899 10.7840139,5.89473668 10.4156921,5.89473668 L9.02693315,5.89473668 C8.64347948,5.89468329 8.33265998,5.61193143 8.33265998,5.26315779 C8.33265998,4.91438416 8.64347948,4.63163229 9.02693315,4.6315789 L10.4156921,4.6315789 L10.4156921,4.6315789 Z M2.7775179,6.52631558 L1.38875896,6.52631558 L1.38875896,8.42105227 L2.7775179,8.42105227 L2.7775179,6.52631558 Z M5.5550358,6.52631558 L4.16627684,6.52631558 L4.16627684,8.42105227 L5.5550358,8.42105227 L5.5550358,6.52631558 Z" id="中英文切换翻译"></path>
                    </g>
                </g>
            </g>
        </g>
    </g>
</svg>