<?xml version="1.0" encoding="UTF-8"?>
<svg width="50px" height="50px" viewBox="0 0 50 50" version="1.1" xmlns="http://www.w3.org/2000/svg" xmlns:xlink="http://www.w3.org/1999/xlink">
    <title>设置密码_icon hover</title>
    <g id="PC端" stroke="none" stroke-width="1" fill="none" fill-rule="evenodd">
        <g id="公共切图" transform="translate(-380.000000, -445.000000)">
            <g id="设置密码_icon-hover" transform="translate(380.000000, 445.000000)">
                <rect id="矩形" fill-opacity="0" fill="#FFFFFF" x="0" y="0" width="50" height="50"></rect>
                <g id="密码" transform="translate(5.000000, 4.000000)">
                    <rect id="矩形" stroke="#3B8CFE" stroke-width="2" x="1" y="15" width="38" height="26" rx="4"></rect>
                    <path d="M33.1471786,15.5855141 L30.8202443,15.5855141 L30.8202443,13.1430082 C30.8202443,7.16904784 25.9758559,2.32619613 20,2.32619613 C14.0241441,2.32619613 9.17975566,7.16904784 9.17975566,13.1430082 L9.17975566,15.5855141 L6.85282141,15.5855141 L6.85282141,13.1430082 C6.85282141,5.8843252 12.7390138,0 20,0 C27.2609862,0 33.1471786,5.8843252 33.1471786,13.1430082 L33.1471786,15.5855141 Z" id="路径" fill="#3B8CFE" fill-rule="nonzero"></path>
                    <path d="M20.0774908,22 C22.0258302,22 23,22.9287599 23,24.7862797 L23,24.934037 C23,26.4022562 22.3913753,27.2902211 21.174126,27.5979317 L21.1734317,32.9023747 C21.1734317,33.6341249 20.7896679,34 20.0221402,34 L19.9667897,34 C19.199262,34 18.8154981,33.6341249 18.8154981,32.9023747 L18.8150219,27.5951689 C17.6050073,27.2849305 17,26.3978865 17,24.934037 L17,24.7862797 C17,22.9287599 17.9741697,22 19.9225092,22 L20.0774908,22 Z" id="形状结合" fill="#B1D1FF" fill-rule="nonzero"></path>
                </g>
            </g>
        </g>
    </g>
</svg>