<?xml version="1.0" encoding="UTF-8"?>
<svg width="50px" height="50px" viewBox="0 0 50 50" version="1.1" xmlns="http://www.w3.org/2000/svg" xmlns:xlink="http://www.w3.org/1999/xlink">
    <title>实名认证_icon</title>
    <g id="我的" stroke="none" stroke-width="1" fill="none" fill-rule="evenodd">
        <g id="切图" transform="translate(-871.000000, -277.000000)">
            <g id="实名认证_icon" transform="translate(871.000000, 277.000000)">
                <rect id="矩形" x="0" y="0" width="50" height="50"></rect>
                <path d="M23,6 C29.627417,6 35,11.372583 35,18 C35,22.4664374 32.5598471,26.3629465 28.9399481,28.4291206 C32.8102616,29.5132321 36.2290036,31.8572284 38.657205,35.1249057 C39.0689665,35.679021 38.9535659,36.4620189 38.3994505,36.8737804 C37.8453352,37.2855418 37.0623373,37.1701412 36.6505758,36.6160259 C33.6957766,32.6396957 29.0480047,30.25 24,30.25 C16.4289464,30.25 9.96838154,35.6321858 8.54023417,42.9736623 C8.40840942,43.6513153 7.75219807,44.0937965 7.07454509,43.9619718 C6.39689212,43.830147 5.95441092,43.1739357 6.08623567,42.4962827 C7.33395935,36.0822849 11.892535,30.9605206 17.8182507,28.8261834 C13.7849625,26.8927015 11,22.7715822 11,18 C11,11.372583 16.372583,6 23,6 Z M23,8.5 C17.7532949,8.5 13.5,12.7532949 13.5,18 C13.5,23.2467051 17.7532949,27.5 23,27.5 C28.2467051,27.5 32.5,23.2467051 32.5,18 C32.5,12.7532949 28.2467051,8.5 23,8.5 Z" id="形状结合" fill="#3D4A5E" fill-rule="nonzero"></path>
                <polygon id="路径-6" fill="#949EA3" fill-rule="nonzero" points="44.8100948 33.4586697 45.6215929 34.2391481 33.8899794 46.4914801 26.6775356 38.6564122 27.4830537 37.8436372 33.905 42.669"></polygon>
            </g>
        </g>
    </g>
</svg>