<?xml version="1.0" encoding="UTF-8"?>
<svg width="50px" height="50px" viewBox="0 0 50 50" version="1.1" xmlns="http://www.w3.org/2000/svg" xmlns:xlink="http://www.w3.org/1999/xlink">
    <title>第三方账号_icon</title>
    <g id="PC端" stroke="none" stroke-width="1" fill="none" fill-rule="evenodd">
        <g id="公共切图" transform="translate(-110.000000, -445.000000)">
            <g id="第三方账号_icon" transform="translate(110.000000, 445.000000)">
                <rect id="矩形" fill-opacity="0" fill="#FFFFFF" x="0" y="0" width="50" height="50"></rect>
                <g id="安全保障" transform="translate(6.000000, 3.999575)" fill-rule="nonzero">
                    <path d="M18.9519872,1.00539807 C23.4375602,1.55128325 27.0309636,2.87329889 30.5420942,4.15805109 C32.5579673,4.89567602 34.5474273,5.62252227 36.6123483,6.19677784 C36.8911532,8.68286273 36.920022,10.6958685 36.9466164,12.5489479 C36.9735631,14.3713069 36.9951014,15.8191545 36.9992701,17.1697152 L36.9992701,17.1697152 L36.9995721,17.9695211 C36.9846747,23.7535104 36.611506,27.7142966 34.3170635,31.1128023 C32.1836722,34.2727604 28.4230238,36.9292587 21.9583137,40.1744803 C20.8458434,40.7321903 19.9545542,41.0004253 19.0615787,41.0004253 C18.153243,41.0004253 17.2855268,40.7333836 16.1514842,40.1527344 C9.68595557,36.842114 5.9160175,33.9894555 3.7659634,30.6777814 C1.37838755,27.0002586 1.01771971,22.7801105 1.00060023,16.8678199 L1.00060023,16.8678199 L1.00042139,16.0736445 C1.00311182,14.8668777 1.01825972,13.5927374 1.03430494,12.2418936 C1.0578457,10.1443133 1.07760959,8.38263646 1.07760248,6.47894901 C1.79125961,6.07080029 2.51159447,5.8378872 3.41837909,5.53703561 L3.41837909,5.53703561 L4.70258443,5.10849385 C6.14456069,4.62560321 7.77296377,4.07793257 9.41540981,3.54338082 L10.237005,3.27755883 C13.7954053,2.13352648 17.2848551,1.11202869 18.9519872,1.00539807 Z" id="路径" stroke="#3D4A5E" stroke-width="2"></path>
                    <path d="M16.4497867,23.4391093 L11.5312353,18.5291233 C11.2552226,18.2528556 10.8780358,18.0969169 10.4841126,18.0962162 C10.0901895,18.0955154 9.71243086,18.250111 9.43540272,18.5253949 C8.85621013,19.1030774 8.85467617,20.030388 9.43195449,20.6099188 L15.4001463,26.566912 C15.6787631,26.8441707 16.0556543,27.0004253 16.4497867,27.0004253 C16.8439191,27.0004253 17.2218448,26.8441707 17.4994271,26.5662342 L28.5682368,15.5138509 C29.1456613,14.9346111 29.1436659,14.0071778 28.5637542,13.4303438 C28.2871829,13.1545265 27.9094024,12.9996031 27.5154144,13.0004253 C27.1214264,13.0012606 26.7443239,13.1577718 26.4689561,13.4347501 L16.4497867,23.4391093 Z" id="路径" fill="#949EA3"></path>
                </g>
            </g>
        </g>
    </g>
</svg>