<?xml version="1.0" encoding="UTF-8"?>
<svg width="20px" height="20px" viewBox="0 0 20 20" version="1.1" xmlns="http://www.w3.org/2000/svg" xmlns:xlink="http://www.w3.org/1999/xlink">
    <!-- Generator: Sketch 62 (91390) - https://sketch.com -->
    <title>删除文字_icon</title>
    <desc>Created with Sketch.</desc>
    <g id="设计规范" stroke="none" stroke-width="1" fill="none" fill-rule="evenodd">
        <g id="图标" transform="translate(-143.000000, -354.000000)">
            <g id="编组-22备份-4" transform="translate(100.000000, 354.000000)">
                <g id="删除文字_icon" transform="translate(43.000000, 0.000000)">
                    <g>
                        <circle id="椭圆形" fill-opacity="0.15" fill="#000000" cx="10" cy="10" r="10"></circle>
                        <path d="M10,9.03977387 L13.8409045,5.19886934 C14.1060636,4.93371022 14.5359715,4.93371022 14.8011307,5.19886934 C15.0662898,5.46402847 15.0662898,5.89393635 14.8011307,6.15909547 L10.9602261,10 L14.8011307,13.8409045 C15.0662898,14.1060636 15.0662898,14.5359715 14.8011307,14.8011307 C14.5359715,15.0662898 14.1060636,15.0662898 13.8409045,14.8011307 L10,10.9602261 L6.15909547,14.8011307 C5.89393635,15.0662898 5.46402847,15.0662898 5.19886934,14.8011307 C4.93371022,14.5359715 4.93371022,14.1060636 5.19886934,13.8409045 L9.03977387,10 L5.19886934,6.15909547 C4.93371022,5.89393635 4.93371022,5.46402847 5.19886934,5.19886934 C5.46402847,4.93371022 5.89393635,4.93371022 6.15909547,5.19886934 L10,9.03977387 Z" id="Path" fill="#FFFFFF"></path>
                    </g>
                </g>
            </g>
        </g>
    </g>
</svg>