<?xml version="1.0" encoding="UTF-8"?>
<svg width="38px" height="14px" viewBox="0 0 38 14" version="1.1" xmlns="http://www.w3.org/2000/svg" xmlns:xlink="http://www.w3.org/1999/xlink">
    <title>LV.1</title>
    <defs>
        <linearGradient x1="0%" y1="50%" x2="100%" y2="50%" id="linearGradient-1">
            <stop stop-color="#31374F" offset="0%"></stop>
            <stop stop-color="#181B27" offset="100%"></stop>
        </linearGradient>
    </defs>
    <g id="购物流程" stroke="none" stroke-width="1" fill="none" fill-rule="evenodd">
        <g id="公共切图" transform="translate(-360.000000, -639.000000)">
            <g id="LV.1" transform="translate(360.000000, 639.000000)">
                <path d="M7.83065735,0 L31,0 C34.8659932,-7.10171439e-16 38,3.13400675 38,7 C38,10.8659932 34.8659932,14 31,14 L0,14 L0,14 C1.44403403,13.480472 2.47740369,12.9632434 3.10010897,12.4483143 C4.0341669,11.6759206 4.17107373,11.6207658 4.34511435,10.4069263 C4.4370406,9.76579023 4.45613527,7.45509771 4.40239834,3.47484877 C4.37684336,1.5814775 5.8910017,0.0258746314 7.78437288,0.000312426615 C7.79980016,0.000104144577 7.81522866,2.83420302e-18 7.83065735,0 Z" id="矩形备份-2" fill="url(#linearGradient-1)"></path>
                <g transform="translate(9.961426, 2.535156)" fill="#FFE297" fill-rule="nonzero" id="路径">
                    <polygon points="4.88232422 8.46484375 0 8.46484375 0 0.145019531 1.77246094 0.145019531 1.77246094 7.01464844 4.88232422 7.01464844"></polygon>
                    <path d="M12.8583984,0.145019531 L9.96875,8.46484375 L7.96533203,8.46484375 L5.11328125,0.145019531 L7.02539062,0.145019531 L8.82470703,6.02636719 C8.91422526,6.31640625 8.96972656,6.59033203 8.99121094,6.84814453 L9.0234375,6.84814453 C9.05208333,6.58317057 9.11295573,6.30208333 9.20605469,6.00488281 L11.0053711,0.145019531 L12.8583984,0.145019531 Z"></path>
                    <path d="M13.4545898,7.68603516 C13.4545898,7.41748047 13.5566406,7.19726562 13.7607422,7.02539062 C13.9648438,6.85351562 14.2083333,6.76757812 14.4912109,6.76757812 C14.7776693,6.76757812 15.0193685,6.85530599 15.2163086,7.03076172 C15.4132487,7.20621745 15.5117188,7.42464193 15.5117188,7.68603516 C15.5117188,7.9617513 15.4132487,8.18465169 15.2163086,8.35473633 C15.0193685,8.52482096 14.7705078,8.60986328 14.4697266,8.60986328 C14.1904297,8.60986328 13.951416,8.52213542 13.7526855,8.34667969 C13.5539551,8.17122396 13.4545898,7.95100911 13.4545898,7.68603516 Z"></path>
                    <polygon points="22.2416992 8.46484375 17.0478516 8.46484375 17.0478516 7.08447266 18.7827148 7.08447266 18.7827148 1.76171875 16.9995117 2.16455078 16.9995117 0.741210938 20.5175781 0 20.5175781 7.08447266 22.2416992 7.08447266"></polygon>
                </g>
            </g>
        </g>
    </g>
</svg>