<?xml version="1.0" encoding="UTF-8"?>
<svg width="48px" height="48px" viewBox="0 0 48 48" version="1.1" xmlns="http://www.w3.org/2000/svg" xmlns:xlink="http://www.w3.org/1999/xlink">
    <title>余额</title>
    <defs>
        <linearGradient x1="50%" y1="0%" x2="50%" y2="74.1479405%" id="linearGradient-1">
            <stop stop-color="#000000" stop-opacity="0.1" offset="0%"></stop>
            <stop stop-color="#FFFFFF" stop-opacity="0" offset="100%"></stop>
        </linearGradient>
        <linearGradient x1="90.1580945%" y1="77.079508%" x2="0%" y2="29.4910531%" id="linearGradient-2">
            <stop stop-color="#FFD77E" offset="0%"></stop>
            <stop stop-color="#FFCA14" offset="30.9141918%"></stop>
            <stop stop-color="#FFC203" offset="57.1282901%"></stop>
            <stop stop-color="#FFFCA1" offset="100%"></stop>
        </linearGradient>
        <circle id="path-3" cx="14" cy="14" r="14"></circle>
        <filter x="-1.8%" y="-1.8%" width="103.6%" height="103.6%" filterUnits="objectBoundingBox" id="filter-4">
            <feGaussianBlur stdDeviation="0.5" in="SourceAlpha" result="shadowBlurInner1"></feGaussianBlur>
            <feOffset dx="0" dy="0" in="shadowBlurInner1" result="shadowOffsetInner1"></feOffset>
            <feComposite in="shadowOffsetInner1" in2="SourceAlpha" operator="arithmetic" k2="-1" k3="1" result="shadowInnerInner1"></feComposite>
            <feColorMatrix values="0 0 0 0 1   0 0 0 0 0.944066885   0 0 0 0 0.673295184  0 0 0 0.516093648 0" type="matrix" in="shadowInnerInner1"></feColorMatrix>
        </filter>
        <linearGradient x1="28.3669851%" y1="8.08167464%" x2="83.6410571%" y2="85.0076115%" id="linearGradient-5">
            <stop stop-color="#FFDD69" offset="0%"></stop>
            <stop stop-color="#FF9814" offset="46.2624595%"></stop>
            <stop stop-color="#F4680A" offset="100%"></stop>
        </linearGradient>
        <circle id="path-6" cx="14" cy="14" r="10.7333333"></circle>
        <filter x="-7.0%" y="-7.0%" width="114.0%" height="114.0%" filterUnits="objectBoundingBox" id="filter-7">
            <feMorphology radius="1" operator="erode" in="SourceAlpha" result="shadowSpreadInner1"></feMorphology>
            <feGaussianBlur stdDeviation="1" in="shadowSpreadInner1" result="shadowBlurInner1"></feGaussianBlur>
            <feOffset dx="0" dy="0" in="shadowBlurInner1" result="shadowOffsetInner1"></feOffset>
            <feComposite in="shadowOffsetInner1" in2="SourceAlpha" operator="arithmetic" k2="-1" k3="1" result="shadowInnerInner1"></feComposite>
            <feColorMatrix values="0 0 0 0 0.79755081   0 0 0 0 0.414726421   0 0 0 0 0  0 0 0 0.581779427 0" type="matrix" in="shadowInnerInner1"></feColorMatrix>
        </filter>
        <path d="M4.3008,11.8608 C5.4768,11.6928 7.0056,10.8696 7.0056,9.0384 C7.0056,7.7448 6.4848,6.7368 3.9816,5.7456 C2.2008,5.0232 1.8816,4.6704 1.8816,4.0992 C1.8816,3.528 2.4696,3.0408 3.612,3.0408 C4.872,3.0408 5.7288,3.3432 6.4008,3.8472 C6.468,3.8808 6.5352,3.8472 6.5352,3.7632 L6.5352,2.1168 C6.5352,2.016 6.5184,1.9656 6.468,1.932 C6.0312,1.6128 5.1744,1.4448 4.3848,1.3944 L4.3344,0.1008 C4.3344,0.0168 4.3176,0 4.2336,0 L2.8224,0 C2.7384,0 2.7216,0.0168 2.7216,0.1008 L2.7216,1.428 C1.008,1.7136 0.0168,2.9064 0.0168,4.3008 C0.0168,5.7792 0.7224,6.6192 3.0408,7.5264 C4.6032,8.1648 5.0232,8.5512 5.0232,9.1728 C5.0232,9.8112 4.3176,10.2144 3.2256,10.2144 C2.352,10.2144 1.1088,9.996 0.1512,9.2568 C0.084,9.1896 0,9.2568 0,9.3408 L0,11.0712 C0,11.2056 0.0336,11.2896 0.1176,11.34 C0.756,11.6928 1.7304,11.928 2.688,11.9616 L2.688,13.2888 C2.688,13.3728 2.7216,13.4064 2.7888,13.4064 L4.2168,13.4064 C4.284,13.4064 4.3008,13.3896 4.3008,13.3056 L4.3008,11.8608 Z" id="path-8"></path>
        <filter x="-28.5%" y="-7.5%" width="157.1%" height="129.8%" filterUnits="objectBoundingBox" id="filter-10">
            <feOffset dx="0" dy="1" in="SourceAlpha" result="shadowOffsetOuter1"></feOffset>
            <feGaussianBlur stdDeviation="0.5" in="shadowOffsetOuter1" result="shadowBlurOuter1"></feGaussianBlur>
            <feColorMatrix values="0 0 0 0 0.788235294   0 0 0 0 0.250980392   0 0 0 0 0  0 0 0 0.597510278 0" type="matrix" in="shadowBlurOuter1"></feColorMatrix>
        </filter>
        <linearGradient x1="50%" y1="0%" x2="50%" y2="100%" id="linearGradient-11">
            <stop stop-color="#FBC932" offset="0%"></stop>
            <stop stop-color="#F7AC06" offset="100%"></stop>
        </linearGradient>
    </defs>
    <g id="购物流程" stroke="none" stroke-width="1" fill="none" fill-rule="evenodd">
        <g id="公共切图" transform="translate(-635.000000, -450.000000)">
            <g id="余额" transform="translate(635.000000, 450.000000)">
                <rect id="矩形" fill-opacity="0" fill="#FFFFFF" x="0" y="0" width="48" height="48"></rect>
                <g transform="translate(10.000000, 10.000000)">
                    <ellipse id="椭圆形" fill="url(#linearGradient-1)" opacity="0.796611241" cx="14" cy="33" rx="14" ry="5"></ellipse>
                    <g id="编组-33">
                        <g id="椭圆形">
                            <use fill="url(#linearGradient-2)" fill-rule="evenodd" xlink:href="#path-3"></use>
                            <use fill="black" fill-opacity="1" filter="url(#filter-4)" xlink:href="#path-3"></use>
                        </g>
                        <g id="椭圆形备份-3">
                            <use fill="url(#linearGradient-5)" fill-rule="evenodd" xlink:href="#path-6"></use>
                            <use fill="black" fill-opacity="1" filter="url(#filter-7)" xlink:href="#path-6"></use>
                        </g>
                        <g id="矩形" transform="translate(10.972267, 7.138133)">
                            <mask id="mask-9" fill="white">
                                <use xlink:href="#path-8"></use>
                            </mask>
                            <g id="蒙版" fill-rule="nonzero">
                                <use fill="black" fill-opacity="1" filter="url(#filter-10)" xlink:href="#path-8"></use>
                                <use fill="#FFF5D0" xlink:href="#path-8"></use>
                                <use fill="#FFF9BA" xlink:href="#path-8"></use>
                            </g>
                            <polygon fill="url(#linearGradient-11)" opacity="0.49899292" mask="url(#mask-9)" transform="translate(10.013554, 9.033128) rotate(20.000000) translate(-10.013554, -9.033128) " points="3.94688724 -0.300204966 16.0802206 -0.300204966 16.0802206 18.3664617 3.94688724 18.3664617"></polygon>
                        </g>
                    </g>
                </g>
            </g>
        </g>
    </g>
</svg>