<?xml version="1.0" encoding="UTF-8"?>
<svg width="24px" height="24px" viewBox="0 0 24 24" version="1.1" xmlns="http://www.w3.org/2000/svg" xmlns:xlink="http://www.w3.org/1999/xlink">
    <title>加号</title>
    <g id="购买流程" stroke="none" stroke-width="1" fill="none" fill-rule="evenodd">
        <g id="公共切图" transform="translate(-797.000000, -782.000000)" stroke="#3B8CFE">
            <g id="加号" transform="translate(797.000000, 782.000000)">
                <rect id="Rectangle-Copy-32" x="0.5" y="0.5" width="23" height="23" rx="11.5"></rect>
                <path d="M12,6 C12.2761424,6 12.5,6.22385763 12.5,6.5 L12.5,11.5 L17.5,11.5 C17.7761424,11.5 18,11.7238576 18,12 C18,12.2761424 17.7761424,12.5 17.5,12.5 L12.5,12.5 L12.5,17.5 C12.5,17.7761424 12.2761424,18 12,18 C11.7238576,18 11.5,17.7761424 11.5,17.5 L11.5,12.5 L6.5,12.5 C6.22385763,12.5 6,12.2761424 6,12 C6,11.7238576 6.22385763,11.5 6.5,11.5 L11.5,11.5 L11.5,6.5 C11.5,6.22385763 11.7238576,6 12,6 Z" id="形状结合" fill="#3B8CFE"></path>
            </g>
        </g>
    </g>
</svg>