<?xml version="1.0" encoding="UTF-8"?>
<svg width="30px" height="30px" viewBox="0 0 30 30" version="1.1" xmlns="http://www.w3.org/2000/svg" xmlns:xlink="http://www.w3.org/1999/xlink">
    <title>直播专区_icon</title>
    <g id="搜索/分类" stroke="none" stroke-width="1" fill="none" fill-rule="evenodd">
        <g id="公共切图" transform="translate(-321.000000, -57.000000)">
            <g id="直播专区_icon" transform="translate(321.000000, 57.000000)">
                <rect id="矩形" fill-opacity="0" fill="#FFFFFF" x="0" y="0" width="30" height="30"></rect>
                <circle id="椭圆形" fill-opacity="0.7" fill="#3B8CFE" cx="21" cy="18" r="7"></circle>
                <path d="M8.61289944,5.20970461 L8.70710678,5.29289322 L11.415,8 L16.584,8 L19.2928932,5.29289322 L19.3871006,5.20970461 C19.7793918,4.90467972 20.3466228,4.93240926 20.7071068,5.29289322 C21.0976311,5.68341751 21.0976311,6.31658249 20.7071068,6.70710678 L20.7071068,6.70710678 L19.414,8 L21.6363636,8 C24.0463335,8 26,9.790861 26,12 L26,21 C26,23.209139 24.0463335,25 21.6363636,25 L6.36363636,25 C3.95366655,25 2,23.209139 2,21 L2,12 C2,9.790861 3.95366655,8 6.36363636,8 L8.585,8 L7.29289322,6.70710678 C6.90236893,6.31658249 6.90236893,5.68341751 7.29289322,5.29289322 C7.65337718,4.93240926 8.22060824,4.90467972 8.61289944,5.20970461 Z M21.6363636,10 L6.36363636,10 C5.2134235,10 4.27109259,10.8158778 4.18780262,11.8507377 L4.18181818,12 L4.18181818,21 C4.18181818,22.0543618 5.07186668,22.9181651 6.20080471,22.9945143 L6.36363636,23 L21.6363636,23 C22.7865765,23 23.7289074,22.1841222 23.8121974,21.1492623 L23.8181818,21 L23.8181818,12 C23.8181818,10.9456382 22.9281333,10.0818349 21.7991953,10.0054857 L21.6363636,10 Z M10.382009,13.8244783 C10.9873172,12.9895983 12.1425046,12.746226 13.0391027,13.2914126 L13.0391027,13.2914126 L16.6646917,15.4959927 C16.9416468,15.6643984 17.173521,15.897595 17.3403489,16.1755033 C17.9088531,17.1225391 17.6019926,18.351127 16.6549568,18.9196312 L16.6549568,18.9196312 L13.0293678,21.0960667 C12.7184502,21.2827101 12.3626369,21.3813067 12,21.3813067 C10.8954305,21.3813067 10,20.4858762 10,19.3813067 L10,19.3813067 L10,15.000291 C10,14.633792 10.1007065,14.2743394 10.2911216,13.9611883 L10.2911216,13.9611883 Z M12,15.000291 L12,19.3813067 L15.6255889,17.2048712 L12,15.000291 Z" id="形状结合" fill="#333333" fill-rule="nonzero"></path>
            </g>
        </g>
    </g>
</svg>