<?xml version="1.0" encoding="UTF-8"?>
<svg width="30px" height="30px" viewBox="0 0 30 30" version="1.1" xmlns="http://www.w3.org/2000/svg" xmlns:xlink="http://www.w3.org/1999/xlink">
    <title>游戏点卡_icon</title>
    <g id="搜索/分类" stroke="none" stroke-width="1" fill="none" fill-rule="evenodd">
        <g id="公共切图" transform="translate(-271.000000, -57.000000)">
            <g id="游戏点卡_icon" transform="translate(271.000000, 57.000000)">
                <rect id="矩形" fill-opacity="0" fill="#FFFFFF" x="0" y="0" width="30" height="30"></rect>
                <circle id="椭圆形" fill-opacity="0.7" fill="#3B8CFE" cx="22" cy="18" r="7"></circle>
                <g id="游戏点卡—icon" transform="translate(1.000000, 5.000000)" fill-rule="nonzero">
                    <rect id="矩形备份-14" stroke="#333333" stroke-width="2" fill-opacity="0" fill="#FFFFFF" x="1" y="1" width="25" height="18" rx="4"></rect>
                    <path d="M17.5,9.16666667 C16.75,9.16666667 16.25,9.66666667 16.25,10.4166667 C16.25,11.1666667 16.75,11.6666667 17.5,11.6666667 C18.25,11.6666667 18.75,11.1666667 18.75,10.4166667 C18.75,9.66666667 18.25,9.16666667 17.5,9.16666667 Z M20,6.66666667 C19.25,6.66666667 18.75,7.16666667 18.75,7.91666667 C18.75,8.66666667 19.25,9.16666667 20,9.16666667 C20.75,9.16666667 21.25,8.66666667 21.25,7.91666667 C21.25,7.16666667 20.75,6.66666667 20,6.66666667 Z M20,11.6666667 C19.25,11.6666667 18.75,12.1666667 18.75,12.9166667 C18.75,13.6666667 19.25,14.1666667 20,14.1666667 C20.75,14.1666667 21.25,13.6666667 21.25,12.9166667 C21.25,12.1666667 20.75,11.6666667 20,11.6666667 Z M22.5,9.16666667 C21.75,9.16666667 21.25,9.66666667 21.25,10.4166667 C21.25,11.1666667 21.75,11.6666667 22.5,11.6666667 C23.25,11.6666667 23.75,11.1666667 23.75,10.4166667 C23.75,9.66666667 23.25,9.16666667 22.5,9.16666667 Z" id="形状结合" fill="#333333"></path>
                    <path d="M9.00107777,6 C9.29944632,6 9.58559447,6.11706315 9.7965729,6.3254369 C10.0075513,6.53381065 10.1260778,6.8164261 10.1260778,7.11111108 L10.1260778,8.85703695 L11.8758278,8.85703695 C12.4970809,8.85713089 13.0006556,9.35456474 13.0006556,9.96814802 C13.0006556,10.5817313 12.4970809,11.0791652 11.8758278,11.0792591 L10.1268278,11.0792591 L10.1268278,12.8251849 C10.1267327,13.4387682 9.62308086,13.9361259 9.00182777,13.9361259 C8.38057468,13.9361259 7.87692288,13.4387682 7.87682777,12.8251849 L7.87682777,11.0792591 L6.12482778,11.0792591 C5.5035747,11.0791652 5,10.5817313 5,9.96814802 C5,9.35456474 5.5035747,8.85713089 6.12482778,8.85703695 L7.87532777,8.85703695 L7.87532777,7.11111108 C7.87532777,6.49746137 8.37900743,6 9.00032778,6 L9.00182778,6 L9.00107777,6 Z" id="路径备份" fill="#333333"></path>
                </g>
            </g>
        </g>
    </g>
</svg>