<?xml version="1.0" encoding="UTF-8"?>
<svg width="30px" height="30px" viewBox="0 0 30 30" version="1.1" xmlns="http://www.w3.org/2000/svg" xmlns:xlink="http://www.w3.org/1999/xlink">
    <title>游戏点卡_icon</title>
    <g id="搜索/分类" stroke="none" stroke-width="1" fill="none" fill-rule="evenodd">
        <g id="公共切图" transform="translate(-421.000000, -57.000000)">
            <g id="游戏点卡_icon" transform="translate(421.000000, 57.000000)">
                <rect id="矩形" fill-opacity="0" fill="#FFFFFF" x="0" y="0" width="30" height="30"></rect>
                <circle id="椭圆形" fill-opacity="0.7" fill="#3B8CFE" cx="22" cy="18" r="7"></circle>
                <path d="M14.90366,5 C17.8993261,5 20.9720044,6.55644703 22.8139028,8.69290298 L23,8.91594462 L16.6947408,15.6225 L22.4178695,21.5374245 C20.6038432,23.5964578 17.847652,25 14.90366,25 C9.43401961,25 5,20.5228475 5,15 C5,9.4771525 9.43401961,5 14.90366,5 Z M14.90366,7 C10.5429464,7 7,10.5774111 7,15 C7,19.4225889 10.5429464,23 14.90366,23 C16.4708331,23 18.0338137,22.4854459 19.3505819,21.5927305 L19.551,21.451 L13.9309835,15.6423338 L20.212,8.96 L20.0082534,8.80233676 C18.6119595,7.75696038 16.8487099,7.07468742 15.1807005,7.00576499 L14.90366,7 Z M23,13 C24.1053333,13 25,13.896 25,15 C25,16.104 24.1053333,17 23,17 C21.8946667,17 21,16.104 21,15 C21,13.896 21.8946667,13 23,13 Z M13,9 C13.3681898,9 13.6666667,9.29847683 13.6666667,9.66666667 L13.6666667,10.3333333 L14.3333333,10.3333333 C14.7015232,10.3333333 15,10.6318102 15,11 C15,11.3681898 14.7015232,11.6666667 14.3333333,11.6666667 L13.6666667,11.6666667 L13.6666667,12.3333333 C13.6666667,12.7015232 13.3681898,13 13,13 C12.6318102,13 12.3333333,12.7015232 12.3333333,12.3333333 L12.3333333,11.6666667 L11.6666667,11.6666667 C11.2984768,11.6666667 11,11.3681898 11,11 C11,10.6318102 11.2984768,10.3333333 11.6666667,10.3333333 L12.3333333,10.3333333 L12.3333333,9.66666667 C12.3333333,9.29847683 12.6318102,9 13,9 Z" id="形状结合" fill="#333333" fill-rule="nonzero"></path>
            </g>
        </g>
    </g>
</svg>