<?xml version="1.0" encoding="UTF-8"?>
<svg width="30px" height="30px" viewBox="0 0 30 30" version="1.1" xmlns="http://www.w3.org/2000/svg" xmlns:xlink="http://www.w3.org/1999/xlink">
    <title>游戏点卡_icon</title>
    <g id="搜索/分类" stroke="none" stroke-width="1" fill="none" fill-rule="evenodd">
        <g id="公共切图" transform="translate(-371.000000, -57.000000)">
            <g id="游戏点卡_icon" transform="translate(371.000000, 57.000000)">
                <rect id="矩形" fill-opacity="0" fill="#FFFFFF" x="0" y="0" width="30" height="30"></rect>
                <circle id="椭圆形" fill-opacity="0.7" fill="#3B8CFE" cx="22" cy="18" r="7"></circle>
                <path d="M15,5 C15.5522847,5 16,5.44771525 16,6 L16,7.58064517 L16,7.58064517 L21.6666667,7.58064517 C23.0811546,7.58064516 24.4377088,8.1244224 25.4379028,9.0923521 C26.4380969,10.0602818 27,11.3730762 27,12.7419355 L27,22.4193548 C27,23.1037845 26.7190484,23.7601817 26.2189514,24.2441465 C25.7188544,24.7281114 25.0405773,25 24.3333333,25 L21,25 C20.292756,25 19.6144789,24.7281114 19.1143819,24.2441465 C18.6142849,23.7601817 18.3333333,23.1037845 18.3333333,22.4193548 L18.3333333,21.7741935 L11.6666667,21.7741935 L11.6666667,22.4193548 C11.6666667,23.8446058 10.4727593,25 9,25 L5.66666667,25 C4.9594227,25 4.2811456,24.7281114 3.78104859,24.2441465 C3.28095157,23.7601817 3,23.1037845 3,22.4193548 L3,12.7419355 C3,11.3730762 3.56190314,10.0602818 4.56209716,9.0923521 C5.56229118,8.1244224 6.91884539,7.58064516 8.33333334,7.58064517 L14,7.58064517 L14,6 C14,5.44771525 14.4477153,5 15,5 Z M25,12.7419355 C25,11.8863984 24.6488105,11.0659019 24.0236893,10.4609459 C23.398568,9.85598981 22.5507216,9.51612903 21.6666667,9.51612903 L8.33333334,9.51612903 C7.44927838,9.51612903 6.601432,9.85598981 5.97631074,10.4609459 C5.35118947,11.0659019 5.00000002,11.8863984 5.00000002,12.7419355 L5.00000002,19.8387097 L25,19.8387097 L25,12.7419355 Z M25,19.8767389 L20.3333333,19.8767389 L25,19.8767389 Z M20.3333333,22.4193548 C20.3333333,22.5904622 20.4035712,22.7545615 20.5285955,22.8755528 C20.6536197,22.996544 20.823189,23.0645161 21,23.0645161 L24.3333333,23.0645161 C24.7015232,23.0645161 25,22.7756676 25,22.4193548 L25,19.8387097 L20.3333333,19.8387097 L20.3333333,22.4193548 Z M5.00000002,19.8767389 L9.66666668,19.8767389 L5.00000002,19.8767389 Z M9.66666668,19.8387097 L5.00000002,19.8387097 L5.00000002,22.4193548 C5.00000002,22.7756676 5.29847685,23.0645161 5.66666667,23.0645161 L9.00000002,23.0645161 C9.17681099,23.0645161 9.34638027,22.996544 9.47140453,22.8755528 C9.59642878,22.7545615 9.66666668,22.5904622 9.66666668,22.4193548 L9.66666668,19.8387097 L9.66666668,19.8387097 Z M10,11.1290323 C10.5522848,11.1290323 11,11.5767475 11,12.1290323 L11,13.0645161 L11,13.0645161 L12.0322581,13.0645161 C12.5667272,13.0645161 13,13.497789 13,14.0322581 C13,14.5667272 12.5667272,15 12.0322581,15 L11,15 L11,15 L11,15.9354839 C11,16.4877686 10.5522848,16.9354839 10,16.9354839 C9.44771526,16.9354839 9.00000001,16.4877686 9.00000001,15.9354839 L9.00000001,15 L9.00000001,15 L7.96774194,15 C7.43327283,15 7.00000001,14.5667272 7.00000001,14.0322581 C7.00000001,13.497789 7.43327283,13.0645161 7.96774194,13.0645161 L9.00000001,13.0645161 L9.00000001,13.0645161 L9.00000001,12.1290323 C9.00000001,11.5767475 9.44771526,11.1290323 10,11.1290323 Z M19,13.7096774 C18.2636203,13.7096774 17.6666667,13.1319803 17.6666667,12.4193548 C17.6666667,11.7067293 18.2636203,11.1290323 19,11.1290323 C19.7363797,11.1290323 20.3333333,11.7067294 20.3333333,12.4193548 C20.3333333,13.1319803 19.7363797,13.7096774 19,13.7096774 L19,13.7096774 Z M21.6666667,16.9354839 C21.1902693,16.9355467 20.7500322,16.6896263 20.5118148,16.2903733 C20.2735973,15.8911203 20.2735973,15.3992022 20.5118148,14.9999493 C20.7500322,14.6006963 21.1902693,14.3547759 21.6666667,14.3548387 C22.4029754,14.3549358 22.9998184,14.9326044 22.9998184,15.6451613 C22.9998184,16.3577181 22.4029754,16.9353868 21.6666667,16.9354839 L21.6666667,16.9354839 Z" id="形状" fill="#333333" fill-rule="nonzero"></path>
            </g>
        </g>
    </g>
</svg>