<?xml version="1.0" encoding="UTF-8"?>
<svg width="14px" height="14px" viewBox="0 0 14 14" version="1.1" xmlns="http://www.w3.org/2000/svg" xmlns:xlink="http://www.w3.org/1999/xlink">
    <title>星星</title>
    <g id="购物流程" stroke="none" stroke-width="1" fill="none" fill-rule="evenodd">
        <g id="公共切图" transform="translate(-617.000000, -49.000000)" fill="#FED03B" fill-rule="nonzero">
            <path d="M630.968134,54.2963855 C630.891547,54.0491717 630.686979,53.8689006 630.441599,53.832003 L626.395095,53.2168675 L624.585228,49.3805723 C624.475387,49.1475904 624.24865,49 624.000246,49 C623.751843,49 623.525106,49.1475904 623.415264,49.3805723 L621.605397,53.2168675 L617.55839,53.832003 C617.312506,53.8694277 617.108442,54.0491717 617.031855,54.2963855 C616.955269,54.5435994 617.019259,54.8145331 617.197122,54.9958584 L620.125559,57.9819277 L619.434262,62.1982681 C619.392442,62.4544428 619.49271,62.713253 619.693751,62.8661145 C619.894791,63.0189759 620.160829,63.039006 620.381016,62.9177711 L624.00075,60.9268825 L627.61998,62.9177711 C627.71521,62.9699548 627.819509,62.9963102 627.923304,62.9963102 C628.058339,62.9963102 628.193374,62.9525602 628.306742,62.8661145 C628.507783,62.713253 628.608051,62.4544428 628.56623,62.1982681 L627.874934,57.9819277 L630.803371,54.9958584 C630.98073,54.8145331 631.04472,54.5435994 630.968134,54.2963855 Z" id="星星"></path>
        </g>
    </g>
</svg>