<?xml version="1.0" encoding="UTF-8"?>
<svg width="24px" height="24px" viewBox="0 0 24 24" version="1.1" xmlns="http://www.w3.org/2000/svg" xmlns:xlink="http://www.w3.org/1999/xlink">
    <title>没点亮</title>
    <g id="评价" stroke="none" stroke-width="1" fill="none" fill-rule="evenodd">
        <g id="评价切图" transform="translate(-121.000000, -36.000000)" fill-rule="nonzero" stroke="#DEE3EB">
            <g id="没点亮" transform="translate(121.000000, 36.000000)">
                <path d="M11.6827103,0.595513236 C12.1150933,0.5 12.2245436,0.534610416 12.3181345,0.595513236 C12.4167221,0.659667568 12.4976884,0.752706781 12.5510257,0.865867356 L12.5510257,0.865867356 L15.7673111,7.68499793 L22.9683747,8.77995305 C23.0826301,8.79713786 23.1869204,8.84849786 23.2718895,8.92345613 C23.3617627,9.00274064 23.4301397,9.10827657 23.4677556,9.22972697 C23.5065394,9.35494828 23.5096955,9.4861725 23.4807574,9.6090554 C23.4524568,9.72923156 23.3933693,9.84169738 23.3058965,9.93114944 L23.3058965,9.93114944 L18.1083466,15.2323189 L19.3343527,22.7118244 C19.3555383,22.8416311 19.3409472,22.9721524 19.2953391,23.0895637 C19.2514127,23.2026458 19.1785646,23.3037475 19.0797624,23.3788915 C18.9750686,23.4587426 18.8504832,23.4997016 18.7256647,23.4997016 C18.6298526,23.4997016 18.5338054,23.4746974 18.4467155,23.4269628 L18.4467155,23.4269628 L12.0013029,19.8805397 L5.5548204,23.4270578 C5.45357364,23.4828183 5.34184819,23.5066467 5.23215713,23.4984 C5.12162678,23.4900902 5.01365445,23.4492959 4.92053668,23.3784758 C4.82228021,23.3037475 4.7494321,23.2026458 4.7055057,23.0895637 C4.6598976,22.9721524 4.64530652,22.8416311 4.66643654,22.712164 L4.66643654,22.712164 L5.8924982,15.2323189 L0.694911831,9.93111223 C0.606834018,9.84129721 0.547659703,9.72898132 0.519306557,9.60894932 C0.490288758,9.48610353 0.493452631,9.35491293 0.532225477,9.22972697 C0.569812208,9.10837061 0.637970108,9.00301284 0.727713583,8.92384274 C0.812918709,8.84867629 0.917635611,8.79730511 1.03239368,8.77983399 L1.03239368,8.77983399 L8.23353124,7.68500328 L11.4498741,0.865750844 C11.5031564,0.752706781 11.5841227,0.659667568 11.6827103,0.595513236 Z" id="星星备份-8"></path>
            </g>
        </g>
    </g>
</svg>