<?xml version="1.0" encoding="UTF-8"?>
<svg width="24px" height="24px" viewBox="0 0 24 24" version="1.1" xmlns="http://www.w3.org/2000/svg" xmlns:xlink="http://www.w3.org/1999/xlink">
    <title>点亮</title>
    <g id="评价" stroke="none" stroke-width="1" fill="none" fill-rule="evenodd">
        <g id="评价切图" transform="translate(-67.000000, -36.000000)" fill="#FED03B" fill-rule="nonzero">
            <g id="点亮" transform="translate(67.000000, 36.000000)">
                <path d="M23.9453718,9.08179873 C23.8140801,8.65789709 23.4633932,8.34878332 23.0427416,8.28551442 L16.1058779,7.23073147 L13.0032488,0.652573515 C12.8149489,0.253075601 12.4262565,0 12.0004224,0 C11.5745883,0 11.1858959,0.253075601 10.997596,0.652573515 L7.89496689,7.23073147 L0.957239407,8.28551442 C0.535724092,8.34968717 0.185900931,8.65789709 0.0546092754,9.08179873 C-0.0766823802,9.50570036 0.0330152531,9.97027486 0.337922848,10.2811963 L5.35810115,15.401458 L4.17302121,22.6312857 C4.10132905,23.0705526 4.27321747,23.5143387 4.61785807,23.7764528 C4.96249866,24.0385668 5.41856441,24.0729127 5.79602792,23.8650292 L12.0012862,20.4512201 L18.2056807,23.8650292 C18.3689315,23.9545095 18.54773,23.9997016 18.7256647,23.9997016 C18.9571526,23.9997016 19.1886405,23.9246828 19.3829868,23.7764528 C19.7276273,23.5143387 19.8995158,23.0705526 19.8278236,22.6312857 L18.6427437,15.401458 L23.662922,10.2811963 C23.9669658,9.97027486 24.0766634,9.50570036 23.9453718,9.08179873 Z" id="星星备份-6"></path>
            </g>
        </g>
    </g>
</svg>