<?xml version="1.0" encoding="UTF-8"?>
<svg width="12px" height="12px" viewBox="0 0 12 12" version="1.1" xmlns="http://www.w3.org/2000/svg" xmlns:xlink="http://www.w3.org/1999/xlink">
    <title>警告_icon_空心</title>
    <g id="购物流程" stroke="none" stroke-width="1" fill="none" fill-rule="evenodd">
        <g id="公共切图" transform="translate(-738.000000, -51.000000)" fill-rule="nonzero">
            <g id="警告_icon_空心" transform="translate(738.000000, 51.000000)">
                <path d="M6,0.5 C7.5186875,0.5 8.89368265,1.11566443 9.88900911,2.11099089 C10.8843356,3.10631735 11.5,4.4813125 11.5,6 C11.5,7.5186875 10.8843356,8.89368265 9.88900911,9.88900911 C8.89368265,10.8843356 7.5186875,11.5 6,11.5 C4.4813125,11.5 3.10631735,10.8843356 2.11099089,9.88900911 C1.11566443,8.89368265 0.5,7.5186875 0.5,6 C0.5,4.4813125 1.11566443,3.10631735 2.11099089,2.11099089 C3.10631735,1.11566443 4.4813125,0.5 6,0.5 Z" id="路径" stroke="#F23030" fill-opacity="0" fill="#FFFFFF"></path>
                <path d="M6,9.33350391 C5.63176414,9.33350391 5.33325,9.03498976 5.33325,8.66675391 C5.33325,8.29851805 5.63176414,8.00000391 6,8.00000391 C6.36823586,8.00000391 6.66675,8.29851805 6.66675,8.66675391 C6.66675,9.03498976 6.36823586,9.33350391 6,9.33350391 Z M6.63550781,6.6645 C6.61699219,7.0095 6.33800391,7.28349609 6.006,7.31949609 C6.03,7.32200391 6.051,7.3335 6.07599609,7.3335 L5.93750391,7.3335 C5.96150391,7.3335 5.98250391,7.32200391 6.006,7.31949609 C5.66481583,7.28550433 5.39987424,7.00695759 5.38299609,6.6645 L5.2305,3.3345 C5.22110499,3.1594066 5.28452897,2.98822161 5.40573981,2.86151763 C5.52695065,2.73481365 5.6951584,2.66386962 5.87049609,2.66547251 L6.1785,2.66547251 C6.54849609,2.66547251 6.83349609,2.95749609 6.81350391,3.3345 L6.63549609,6.6645 L6.63550781,6.6645 Z" id="警告_icon_空心_橘色" fill="#F23030"></path>
            </g>
        </g>
    </g>
</svg>