<?xml version="1.0" encoding="UTF-8"?>
<svg width="20px" height="20px" viewBox="0 0 20 20" version="1.1" xmlns="http://www.w3.org/2000/svg" xmlns:xlink="http://www.w3.org/1999/xlink">
    <!-- Generator: Sketch 62 (91390) - https://sketch.com -->
    <title>错误_icon_实心_red</title>
    <desc>Created with Sketch.</desc>
    <defs>
        <path d="M10,0 C15.5228475,0 20,4.4771525 20,10 C20,15.5228475 15.5228475,20 10,20 C4.4771525,20 0,15.5228475 0,10 C0,4.4771525 4.4771525,0 10,0 Z M6.92383297,5.52426407 C6.6895184,5.28994949 6.30961941,5.28994949 6.07530483,5.52426407 L6.07530483,5.52426407 L5.50961941,6.08994949 C5.27530483,6.32426407 5.27530483,6.70416306 5.50961941,6.93847763 L5.50961941,6.93847763 L8.585,10.014 L5.50961941,13.0903066 C5.30133979,13.2985862 5.27819761,13.6218955 5.44019287,13.8557373 L5.50961941,13.9388348 L6.07530483,14.5045202 C6.30961941,14.7388348 6.6895184,14.7388348 6.92383297,14.5045202 L6.92383297,14.5045202 L9.999,11.428 L13.075662,14.5045202 C13.2839416,14.7127998 13.6072509,14.735942 13.8410926,14.5739467 L13.9241901,14.5045202 L14.4898755,13.9388348 C14.7241901,13.7045202 14.7241901,13.3246212 14.4898755,13.0903066 L14.4898755,13.0903066 L11.413,10.014 L14.4898755,6.93847763 C14.6981552,6.73019801 14.7212973,6.40688873 14.5593021,6.17304696 L14.4898755,6.08994949 L13.9241901,5.52426407 C13.6898755,5.28994949 13.3099765,5.28994949 13.075662,5.52426407 L13.075662,5.52426407 L9.999,8.6 Z" id="path-1"></path>
    </defs>
    <g id="设计规范" stroke="none" stroke-width="1" fill="none" fill-rule="evenodd">
        <g id="图标" transform="translate(-400.000000, -466.000000)">
            <g id="编组-22备份-13" transform="translate(360.000000, 466.000000)">
                <g id="错误_icon_实心_red" transform="translate(40.000000, 0.000000)">
                    <mask id="mask-2" fill="white">
                        <use xlink:href="#path-1"></use>
                    </mask>
                    <use fill="#F23030" xlink:href="#path-1"></use>
                </g>
            </g>
        </g>
    </g>
</svg>