<?xml version="1.0" encoding="UTF-8"?>
<svg width="60px" height="60px" viewBox="0 0 60 60" version="1.1" xmlns="http://www.w3.org/2000/svg" xmlns:xlink="http://www.w3.org/1999/xlink">
    <title>充值成功_icon</title>
    <g id="购物流程" stroke="none" stroke-width="1" fill="none" fill-rule="evenodd">
        <g id="公共切图" transform="translate(-64.000000, -617.000000)" fill="#3B8CFE" fill-rule="nonzero">
            <g id="形状" transform="translate(64.000000, 617.000000)">
                <path d="M30,0 C13.7170359,0 0.517241379,13.4313699 0.517241379,30 C0.517241379,46.5686301 13.7170359,60 30,60 C46.2829641,60 59.4827586,46.5686301 59.4827586,30 C59.4827586,13.4313699 46.2829641,0 30,0 Z M47.757304,21.6114384 L27.3565139,42.819863 C27.2869804,42.9260274 27.2095714,43.0273973 27.1183633,43.1213699 C26.3187613,43.9477397 25.0225295,43.9477397 24.222389,43.1213699 L14.088936,32.6514383 C13.2899398,31.825 13.2899398,30.4858219 14.088936,29.6606165 C14.8884707,28.8341781 16.1847024,28.8341781 16.9843045,29.6606165 L25.6397827,38.6023288 L44.8613297,18.6194521 C45.6615375,17.7930823 46.9571634,17.7930823 47.757304,18.6194521 C48.5563002,19.4458219 48.5563002,20.7849315 47.757304,21.6114384 Z"></path>
            </g>
        </g>
    </g>
</svg>