<?xml version="1.0" encoding="UTF-8"?>
<svg width="20px" height="20px" viewBox="0 0 20 20" version="1.1" xmlns="http://www.w3.org/2000/svg" xmlns:xlink="http://www.w3.org/1999/xlink">
    <!-- Generator: Sketch 62 (91390) - https://sketch.com -->
    <title>警告_icon_实心_橘色</title>
    <desc>Created with Sketch.</desc>
    <g id="设计规范" stroke="none" stroke-width="1" fill="none" fill-rule="evenodd">
        <g id="图标" transform="translate(-270.000000, -466.000000)" fill="#EE0000" fill-rule="nonzero">
            <g id="编组-22备份-12" transform="translate(230.000000, 466.000000)">
                <g id="警告_icon_实心_橘色" transform="translate(40.000000, 0.000000)">
                    <g>
                        <path d="M10,0 C4.4775,0 0,4.4775 0,10 C0,15.5225 4.4775,20 10,20 C15.5225,20 20,15.5225 20,10 C20,4.4775 15.5225,0 10,0 Z M10,15.5558398 C9.38627357,15.5558398 8.88875,15.0583163 8.88875,14.4445898 C8.88875,13.8308634 9.38627357,13.3333398 10,13.3333398 C10.6137264,13.3333398 11.11125,13.8308634 11.11125,14.4445898 C11.11125,15.0583163 10.6137264,15.5558398 10,15.5558398 Z M11.0591797,11.1075 C11.0283203,11.6825 10.5633398,12.1391602 10.01,12.1991602 C10.05,12.2033398 10.085,12.2225 10.1266602,12.2225 L9.89583984,12.2225 C9.93583984,12.2225 9.97083984,12.2033398 10.01,12.1991602 C9.44135972,12.1425072 8.99979041,11.6782627 8.97166016,11.1075 L8.7175,5.5575 C8.70184165,5.26567766 8.80754829,4.98036935 9.00956635,4.76919605 C9.21158442,4.55802275 9.49193066,4.4397827 9.78416016,4.44245418 L10.2975,4.44245418 C10.9141602,4.44245418 11.3891602,4.92916016 11.3558398,5.5575 L11.0591602,11.1075 L11.0591797,11.1075 Z"></path>
                    </g>
                </g>
            </g>
        </g>
    </g>
</svg>