<?xml version="1.0" encoding="UTF-8"?>
<svg width="20px" height="20px" viewBox="0 0 20 20" version="1.1" xmlns="http://www.w3.org/2000/svg" xmlns:xlink="http://www.w3.org/1999/xlink">
    <!-- Generator: Sketch 62 (91390) - https://sketch.com -->
    <title>成功_icon_实心_绿色</title>
    <desc>Created with Sketch.</desc>
    <g id="设计规范" stroke="none" stroke-width="1" fill="none" fill-rule="evenodd">
        <g id="图标" transform="translate(-140.000000, -466.000000)" fill="#52C41A">
            <g id="编组-22备份-11" transform="translate(100.000000, 466.000000)">
                <g id="成功_icon_实心_绿色" transform="translate(40.000000, 0.000000)">
                    <path d="M10,20 C15.5228475,20 20,15.5228475 20,10 C20,4.4771525 15.5228475,0 10,0 C4.4771525,0 0,4.4771525 0,10 C0,15.5228475 4.4771525,20 10,20 Z M7.05055875,9.90821259 C6.65297179,9.52488107 6.01991228,9.53643739 5.63658076,9.93402436 C5.25324925,10.3316113 5.26480557,10.9646708 5.66239253,11.3480023 L7.7080697,13.3203319 C8.10063327,13.6988202 8.72405354,13.6930209 9.10950811,13.3072952 L14.2300029,8.18319944 C14.6203899,7.7925379 14.6201673,7.15937296 14.2295058,6.76898597 C13.8388442,6.37859897 13.2056793,6.37882153 12.8152923,6.76948307 L8.38911403,11.1987741 L7.05055875,9.90821259 Z"></path>
                </g>
            </g>
        </g>
    </g>
</svg>