<?xml version="1.0" encoding="UTF-8"?>
<svg width="60px" height="60px" viewBox="0 0 60 60" version="1.1" xmlns="http://www.w3.org/2000/svg" xmlns:xlink="http://www.w3.org/1999/xlink">
    <title>充值失败_icon</title>
    <g id="购物流程" stroke="none" stroke-width="1" fill="none" fill-rule="evenodd">
        <g id="公共切图" transform="translate(-158.000000, -616.000000)" fill="#F23030" fill-rule="nonzero">
            <g id="形状结合" transform="translate(158.000000, 616.000000)">
                <path d="M30,0 C46.5686301,0 60,13.4313699 60,30 C60,46.5686301 46.5686301,60 30,60 C13.4313699,60 0,46.5686301 0,30 C0,13.4313699 13.4313699,0 30,0 Z M21.3147613,18.4729145 C20.522337,17.8052705 19.3369245,17.8445437 18.5907341,18.5907341 L18.5907341,18.5907341 L18.4729145,18.7190233 C17.8052705,19.5114477 17.8445437,20.6968601 18.5907341,21.4430506 L18.5907341,21.4430506 L27.147,30 L18.5907341,38.5569494 C17.8030886,39.3445949 17.8030886,40.6216205 18.5907341,41.4092659 C19.3783795,42.1969114 20.6554051,42.1969114 21.4430506,41.4092659 L21.4430506,41.4092659 L30,32.853 L38.5569494,41.4092659 L38.6852387,41.5270855 C39.477663,42.1947295 40.6630755,42.1554563 41.4092659,41.4092659 L41.4092659,41.4092659 L41.5270855,41.2809767 C42.1947295,40.4885523 42.1554563,39.3031399 41.4092659,38.5569494 L41.4092659,38.5569494 L32.853,30 L41.4092659,21.4430506 C42.1969114,20.6554051 42.1969114,19.3783795 41.4092659,18.5907341 C40.6216205,17.8030886 39.3445949,17.8030886 38.5569494,18.5907341 L38.5569494,18.5907341 L30,27.147 L21.4430506,18.5907341 Z"></path>
            </g>
        </g>
    </g>
</svg>