<?xml version="1.0" encoding="UTF-8"?>
<svg width="50px" height="50px" viewBox="0 0 50 50" version="1.1" xmlns="http://www.w3.org/2000/svg" xmlns:xlink="http://www.w3.org/1999/xlink">
    <title>提交失败</title>
    <g id="购物流程" stroke="none" stroke-width="1" fill="none" fill-rule="evenodd">
        <g id="公共切图" transform="translate(-838.000000, -153.000000)" fill="#F23030">
            <g id="提交失败" transform="translate(838.000000, 153.000000)">
                <path d="M25.0301014,49.9999308 C14.3359579,50.0250223 4.8130954,43.2291177 1.34834465,33.0995897 C-2.1164061,22.9700617 1.24628158,11.7561101 9.71078311,5.21237874 C18.1752846,-1.33135262 29.8621093,-1.75186821 38.7739498,4.1666272 C39.3660702,4.49100814 39.7255193,5.12135707 39.7035223,5.79677462 C39.6815254,6.47219217 39.281825,7.0777576 38.6698559,7.36282934 C38.0578868,7.64790107 37.3377742,7.56397482 36.8075703,7.14578739 C28.6187074,1.74207105 17.8091544,2.60279489 10.5763229,9.23448243 C3.34349151,15.86617 1.53860549,26.5714585 6.19645528,35.2127141 C10.8543051,43.8539697 20.7827265,48.2194861 30.2894846,45.8063936 C39.7962428,43.393301 46.4481084,34.8192243 46.4313854,24.9999153 C46.4320243,24.251908 46.3938243,23.5043731 46.31694,22.7603369 C46.2163843,21.7794583 46.9290713,20.9026846 47.908771,20.8020079 C48.8884707,20.7013312 49.7641907,21.4148758 49.8647464,22.3957543 C49.9539094,23.26095 49.9990522,24.1301269 50,24.9999153 C50,31.6303132 47.3692504,37.9891472 42.6864861,42.6775465 C38.0037217,47.3659458 31.6525303,49.9999308 25.0301014,49.9999308 Z" id="路径" fill-rule="nonzero"></path>
                <path d="M13.5907341,14.5907341 C14.3783795,13.8030886 15.6554051,13.8030886 16.4430506,14.5907341 L16.4430506,14.5907341 L25,23.147 L33.5569494,14.5907341 C34.3445949,13.8030886 35.6216205,13.8030886 36.4092659,14.5907341 C37.1969114,15.3783795 37.1969114,16.6554051 36.4092659,17.4430506 L27.853,26 L36.4092659,34.5569494 C37.1554563,35.3031399 37.1947295,36.4885523 36.5270855,37.2809767 L36.4092659,37.4092659 C35.6216205,38.1969114 34.3445949,38.1969114 33.5569494,37.4092659 L33.5569494,37.4092659 L25,28.853 L16.4430506,37.4092659 C15.6554051,38.1969114 14.3783795,38.1969114 13.5907341,37.4092659 C12.8030886,36.6216205 12.8030886,35.3445949 13.5907341,34.5569494 L22.147,26 L13.5907341,17.4430506 C12.8445437,16.6968601 12.8052705,15.5114477 13.4729145,14.7190233 Z" id="Combined-Shape" stroke="#F23030" stroke-width="0.5"></path>
            </g>
        </g>
    </g>
</svg>